<svg fill="none" height="29" viewBox="0 0 50 29" width="50" xmlns="http://www.w3.org/2000/svg"><path clip-rule="evenodd" d="m34.973 0-.7699.0199756-.7639.0541273-.7479.0927901-.7393.126941-.7239.161093-.7126.196534-.6933.229397-.6839.258392-.6632.29512-.642.31704-.6272.34731-.6066.37696-.5866.40531-.568.43109-.5412.45492-.522.47942-.4946.5039-.4713.52774-.4446.54256-.4146.56769-.39.59154-.3593.60184-.3339.62698-.2987.63986-.2686.65532-.232.67535-.2033.6849-.1666.6985-.1314.7101-.0959.7237-.0567.7333-.02.7436.02.7487.0567.7385.0959.7242.1314.7185.1666.6998.2033.6888.232.6753.2686.6612.2987.645.3339.6257.3593.6076.39.5916.4146.5676.4446.5465.4713.529.4946.5045.522.484.5412.4549.568.4311.5866.4053.6066.3763.6272.3525.642.3177.6632.2938.6839.259.6933.2301.7126.1959.7239.1604.7393.1282.7479.0922.7639.0541.7699.0187.7733-.0187.7652-.0541.7492-.0922.7433-.1282.7226-.1604.7146-.1959.6979-.2301.6833-.259.6672-.2938.6486-.3177.6266-.3525.6126-.3763.5873-.4053.5659-.4311.5473-.4549.5213-.484.4999-.5045.4713-.529.4459-.5465.4193-.5676.39-.5916.3633-.6076.3286-.6257.3046-.645.268-.6612.2366-.6753.204-.6888.166-.6998.132-.7185.096-.7242.056-.7385.0193-.7487-.0193-.7436-.056-.7333-.096-.7237-.132-.7101-.166-.6985-.204-.6849-.2366-.67535-.268-.65532-.3046-.63986-.3286-.62698-.3633-.60184-.39-.59154-.4193-.56769-.4459-.54256-.4713-.52774-.4999-.5039-.5213-.47942-.5473-.45492-.5659-.43109-.5873-.40531-.6126-.37696-.6266-.34731-.6486-.31704-.6672-.29512-.6833-.258392-.6979-.229397-.7146-.196534-.7226-.161093-.7433-.126941-.7492-.0927901-.7652-.0541273z" fill="#fbb231" fill-rule="evenodd"/><path clip-rule="evenodd" d="m15.0283 0-.7746.0199756-.7639.0541273-.7492.0927901-.7439.126941-.7233.161093-.7139.196534-.69793.229397-.68259.258392-.66793.29512-.64792.31704-.62727.34731-.6126.37696-.58726.40531-.56661.43109-.5466.45492-.51995.47942-.50127.5039-.47062.52774-.44528.54256-.42062.56769-.38929.59154-.36463.60184-.32796.62698-.30463.63986-.267975.65532-.237306.67535-.202645.6849-.166648.6985-.131985.7101-.096656.7237-.0546606.7333-.0206644.7436.0206644.7487.0546606.7385.096656.7242.131985.7185.166648.6998.202645.6888.237306.6753.267975.6612.30463.645.32796.6257.36463.6076.38929.5916.42062.5676.44528.5465.47062.529.50127.5045.51995.484.5466.4549.56661.4311.58726.4053.6126.3763.62727.3525.64792.3177.66793.2938.68259.259.69793.2301.7139.1959.7233.1604.7439.1282.7492.0922.7639.0541.7746.0187.7686-.0187.7639-.0541.7499-.0922.7386-.1282.7233-.1604.7126-.1959.6939-.2301.6832-.259.6626-.2938.6426-.3177.6273-.3525.6066-.3763.5879-.4053.5666-.4311.5413-.4549.5213-.484.4959-.5045.4713-.529.4446-.5465.414-.5676.3913-.5916.3586-.6076.334-.6257.2979-.645.2687-.6612.2326-.6753.202-.6888.168-.6998.1306-.7185.0967-.7242.0553-.7385.02-.7487-.02-.7436-.0553-.7333-.0967-.7237-.1306-.7101-.168-.6985-.202-.6849-.2326-.67535-.2687-.65532-.2979-.63986-.334-.62698-.3586-.60184-.3913-.59154-.414-.56769-.4446-.54256-.4713-.52774-.4959-.5039-.5213-.47942-.5413-.45492-.5666-.43109-.5879-.40531-.6066-.37696-.6273-.34731-.6426-.31704-.6626-.29512-.6832-.258392-.6939-.229397-.7126-.196534-.7233-.161093-.7386-.126941-.7499-.0927901-.7639-.0541273z" fill="#ec1c2e" fill-rule="evenodd"/><path clip-rule="evenodd" d="m23 6h8v-1h-7.3094z" fill="#fbb231" fill-rule="evenodd"/><path clip-rule="evenodd" d="m22 8h9v-1h-8.528z" fill="#fbb231" fill-rule="evenodd"/><path clip-rule="evenodd" d="m21 9h10v-1h-9.6479z" fill="#fbb231" fill-rule="evenodd"/><path clip-rule="evenodd" d="m20 11h11v-1h-10.7395z" fill="#fbb231" fill-rule="evenodd"/><path clip-rule="evenodd" d="m21.2392 20h9.7608v-1h-10z" fill="#fbb231" fill-rule="evenodd"/><path clip-rule="evenodd" d="m21.3811 21h9.6189v-1h-10z" fill="#fbb231" fill-rule="evenodd"/><path clip-rule="evenodd" d="m22.5093 23h8.4907v-1h-9z" fill="#fbb231" fill-rule="evenodd"/><path clip-rule="evenodd" d="m23.7375 25h7.2625v-1h-8z" fill="#fbb231" fill-rule="evenodd"/><path clip-rule="evenodd" d="m20 13h11v-1h-10.8437z" fill="#fbb231" fill-rule="evenodd"/><path clip-rule="evenodd" d="m27 18h4v-1h-3.8548z" fill="#fbb231" fill-rule="evenodd"/><path clip-rule="evenodd" d="m27 16h4v-1h-3.8429z" fill="#fbb231" fill-rule="evenodd"/><path clip-rule="evenodd" d="m20 15h1v1h-.9531z" fill="#fbb231" fill-rule="evenodd"/><path clip-rule="evenodd" d="m17.7705 14.1485-.0621-.0042-.0627-.009-.0591-.009-.0574-.009-.0544-.009-.0586-.0096-.0573-.0084-.0639-.0096-.0627-.0084-.0716-.0054-.081-.0048-.0852-.0042h-.0946l-.1029.0042-.1171.0102-.1296.0084-.0899.0138-.0851.0138-.0769.027-.0674.027-.0627.0325-.058.036-.0455.0462-.0408.0408-.0267.0499-.0218.0504-.0095.0546v.0547l.0136.0594.0177.0589.0355.0594.0456.0594.0899.0859.1082.069.1254.0589.1348.0498.1432.0462.1478.0499.1485.0552.1437.0588.1349.0775.1254.0954.1123.1147.0941.1411.0721.1729.0456.2053.0171.2462-.0171.287-.032.2143-.0538.1867-.0721.173-.0894.1501-.1029.1332-.1177.1135-.1254.1003-.1384.087-.1449.0679-.1478.0588-.1526.0456-.1568.0367-.1531.0282-.1473.0132-.1479.009-.1396.0042h-.194l-.1792-.0042h-.1573l-.1479-.0042-.1348-.0048-.1207-.0096-.1076-.009-.1035-.0138-.0946-.009-.0852-.018-.0852-.0145-.0763-.0222-.0769-.018-.0709-.0282-.0728-.0264-.0757-.0276.2017-1.0069.0408.009.0485.0138.0633.0174.0769.0193.0804.018.0899.018.0988.0222.107.0186.113.018.1165.0186.1213.0132.1259.0138.1296.0043.1313.0048h.1289l.1307-.0048.1301-.0265.1035-.0372.0805-.0492.0633-.0643.0449-.0636.0361-.0738.0225-.0721.0177-.0684.0095-.1327-.0408-.1135-.0769-.0919-.1118-.0768-.1349-.0678-.1573-.0691-.175-.0642-.1745-.0721-.1798-.0822-.1704-.0955-.1573-.1183-.1443-.1417-.1118-.1735-.081-.2053-.0408-.245.0047-.2917.0225-.1784.0325-.1687.0444-.1549.0532-.1453.0722-.1368.0804-.1189.0952-.1141.1118-.0997.1313-.0864.1425-.0733.1615-.0678.1798-.0504.2023-.0415.22-.0318.2419-.018.2656-.0054h.1656l.1526.0054.1396.0048.1253.0042.1124.009.1029.009.0899.009.0805.0096.0769.009.0632.0132.0574.0097.055.009.0444.0084.0402.0054.0402.009.0361.0048z" fill="#fff" fill-rule="evenodd"/><path d="m17.7705 14.1485-.0621-.0042-.0627-.009-.0591-.009-.0574-.009-.0544-.009-.0586-.0096-.0573-.0084-.0639-.0096-.0627-.0084-.0716-.0054-.081-.0048-.0852-.0042h-.0946l-.1029.0042-.1171.0102-.1296.0084-.0899.0138-.0851.0138-.0769.027-.0674.027-.0627.0325-.058.036-.0455.0462-.0408.0408-.0267.0499-.0218.0504-.0095.0546v.0547l.0136.0594.0177.0589.0355.0594.0456.0594.0899.0859.1082.069.1254.0589.1348.0498.1432.0462.1478.0499.1485.0552.1437.0588.1349.0775.1254.0954.1123.1147.0941.1411.0721.1729.0456.2053.0171.2462-.0171.287-.032.2143-.0538.1867-.0721.173-.0894.1501-.1029.1332-.1177.1135-.1254.1003-.1384.087-.1449.0679-.1478.0588-.1526.0456-.1568.0367-.1531.0282-.1473.0132-.1479.009-.1396.0042h-.194l-.1792-.0042h-.1573l-.1479-.0042-.1348-.0048-.1207-.0096-.1076-.009-.1035-.0138-.0946-.009-.0852-.018-.0852-.0145-.0763-.0222-.0769-.018-.0709-.0282-.0728-.0264-.0757-.0276.2017-1.0069.0408.009.0485.0138.0633.0174.0769.0193.0804.018.0899.018.0988.0222.107.0186.113.018.1165.0186.1213.0132.1259.0138.1296.0043.1313.0048h.1289l.1307-.0048.1301-.0265.1035-.0372.0805-.0492.0633-.0643.0449-.0636.0361-.0738.0225-.0721.0177-.0684.0095-.1327-.0408-.1135-.0769-.0919-.1118-.0768-.1349-.0678-.1573-.0691-.175-.0642-.1745-.0721-.1798-.0822-.1704-.0955-.1573-.1183-.1443-.1417-.1118-.1735-.081-.2053-.0408-.245.0047-.2917.0225-.1784.0325-.1687.0444-.1549.0532-.1453.0722-.1368.0804-.1189.0952-.1141.1118-.0997.1313-.0864.1425-.0733.1615-.0678.1798-.0504.2023-.0415.22-.0318.2419-.018.2656-.0054h.1656l.1526.0054.1396.0048.1253.0042.1124.009.1029.009.0899.009.0805.0096.0769.009.0632.0132.0574.0097.055.009.0444.0084.0402.0054.0402.009.0361.0048z" stroke="#fff" stroke-width=".216"/><path clip-rule="evenodd" d="m18.9846 12h1.3858l-.2055 1.106h.8351l-.1805 1.0325-.8805-.0229-.4788 2.5497-.0053.0915.0244.0782.0507.059.0652.05.0895.0325.1002.0271.1093.0181.1205.0096.1093-.0042.1001-.0096.0909-.0139.0797-.018.0652-.0187.0448-.0133.0303-.0096.0092-.0042-.1738.8501-.0356.0229-.0349.018-.0356.0181-.0342.018-.0356.0139-.0402.0144-.0448.0133-.0447.0138-.0501.0133-.0507.0096-.0593.009-.0593.0097-.0652.009-.0757.009-.0804.0091-.0849.009h-.38l-.2003-.0138-.1745-.0181-.1594-.0271-.135-.0325-.1159-.0416-.0942-.0445-.0849-.0554-.0653-.0596-.05-.0638-.0356-.0777-.0243-.0782-.0152-.0861-.0046-.0964v-.0999l.0145-.1054.0158-.1143z" fill="#fff" fill-rule="evenodd"/><path d="m18.9846 12h1.3858l-.2055 1.106h.8351l-.1805 1.0325-.8805-.0229-.4788 2.5497-.0053.0915.0244.0782.0507.059.0652.05.0895.0325.1002.0271.1093.0181.1205.0096.1093-.0042.1001-.0096.0909-.0139.0797-.018.0652-.0187.0448-.0133.0303-.0096.0092-.0042-.1738.8501-.0356.0229-.0349.018-.0356.0181-.0342.018-.0356.0139-.0402.0144-.0448.0133-.0447.0138-.0501.0133-.0507.0096-.0593.009-.0593.0097-.0652.009-.0757.009-.0804.0091-.0849.009h-.38l-.2003-.0138-.1745-.0181-.1594-.0271-.135-.0325-.1159-.0416-.0942-.0445-.0849-.0554-.0653-.0596-.05-.0638-.0356-.0777-.0243-.0782-.0152-.0861-.0046-.0964v-.0999l.0145-.1054.0158-.1143z" stroke="#fff" stroke-width=".216"/><path d="m21.51 15.8574-.0157.0772-.0047.0827.0095.0868.0211.0875.0361.0868.0423.0833.0558.0862.062.0779.0722.0784.0769.0693.0838.0676.0927.0549.0933.0507.1035.041.1028.032.1043.0187.1334.0174.1301.0145.1342.0133.1342.0096.1349.0043h.1396l.1342-.0043.1396-.0096.1396-.0181.1396-.0235.1451-.0272.139-.041.1457-.0501.1492-.0555.1451-.0723.1491-.0785-.2064 1.1268-.0831.0362-.0824.0374-.0831.0266-.0762.0283-.0784.0223-.0831.0236-.0824.0169-.0878.0144-.0934.0139-.1028.0097-.1083.0084-.1192.0091-.1349.0054h-.1389l-.1607.0036h-.171l-.2534-.0036-.2574-.0229-.2595-.0326-.2582-.0555-.2533-.0676-.2425-.088-.2336-.114-.2166-.1334-.2016-.155-.1758-.1882-.1498-.2105-.1246-.2425-.0872-.2702-.0566-.3071-.0163-.339.0266-.3752.0204-.1465.03-.1695.0422-.178.0565-.193.0784-.1961.0926-.1972.1185-.2015.1451-.1918.1648-.184.2016-.1737.2282-.1556.2581-.137.2997-.1152.3365-.082.3712-.0549.4195-.0187.2016.0048.2125.0181.2119.032.2125.0458.2064.0694.2016.082.1866.1098.1703.1279.1546.1562.1294.1834.1028.2105.0729.2431.0416.2733.0054.3112-.0361.3487-.0783.3848-.0259.2793h-3.7679l.237-.9024h2.2647l.0102-.114-.0061-.1098-.0102-.1013-.0198-.0905-.0361-.0875-.0361-.0784-.0524-.0687-.0511-.064-.0613-.0543-.0681-.0464-.0776-.041-.0777-.0368-.0824-.0266-.0831-.0187-.0879-.0138-.0933-.0097-.0981.0048-.0926.0139-.0878.0187-.0879.0272-.0886.0361-.0762.0417-.079.0506-.0661.0543-.0681.064-.062.0687-.0565.0736-.047.0784-.0463.0821-.0361.0917-.0314.0916-.0204.096z" stroke="#fff" stroke-width=".216"/><path clip-rule="evenodd" d="m33.7655 12.7904-.0603-.036-.0604-.0312-.0664-.0361-.0696-.0366-.0708-.0299-.0782-.0313-.08-.0313-.0831-.0305-.0892-.0258-.0899-.0204-.0973-.0211-.0978-.0156-.1077-.0102-.1071-.0102h-.1121-.1169-.117l-.1219.0102-.1261.0163-.1305.0251-.1311.0408-.1299.0571-.1311.0727-.1318.0917-.1255.1142-.1225.1338-.1163.1651-.1115.191-.1034.2269-.0978.2575-.0887.2902-.0738.3295-.0296.1848-.0178.1808-.0099.1807.0056.176.0129.1746.0326.1651.0425.155.0511.1549.0701.1393.0837.1332.0992.1189.112.1087.1262.0931.144.0768.1594.0672.1773.0462.0609.015.0708.0156.0843.0109.093.0109.1022.0101h.1083.1157l.1176-.0101.1213-.0164.1212-.0251.117-.0367.1169-.0408.1164-.057.1077-.0666.0978-.0822.0936-.0931-.2093 1.3773-.0289.0251-.0277.0313-.0376.0367-.0412.0292-.0517.0414-.0659.0367-.0751.036-.0837.0306-.1071.0367-.1218.0258-.1398.0211-.1643.0204-.1816.0102-.2111.0054-.237-.0054-.2628-.0157-.2149-.0258-.2148-.0516-.2142-.0768-.2154-.104-.2056-.123-.1964-.1556-.1865-.18-.173-.2059-.1551-.2324-.1298-.2575-.1121-.2888-.0837-.3153-.056-.3451-.0197-.3663.0098-.4022.0505-.4288.0382-.2106.0412-.2066.0474-.2011.0474-.1909.0499-.1808.0609-.18.0616-.1706.0652-.1597.0708-.1596.0696-.1502.0794-.1441.0837-.1338.0843-.1298.0936-.123.0929-.1135.0985-.1087.1071-.1033.1077-.0978.1127-.0877.1169-.0829.1256-.0774.1262-.0659.1311-.0625.1354-.0571.1453-.0517.1434-.0407.1502-.0367.1594-.0299.1582-.0272.1686-.0197.1681-.0095.1779-.0068.1502.0068.144.0095.1403.0156.1398.0204.1311.0204.1262.0313.1212.0258.1121.0306.1077.0305.0935.0313.0893.0312.0739.0306.0658.0258.056.0211.0419.0204.0283.0109z" fill="#fff" fill-rule="evenodd"/><path d="m33.7655 12.7904-.0603-.036-.0604-.0312-.0664-.0361-.0696-.0366-.0708-.0299-.0782-.0313-.08-.0313-.0831-.0305-.0892-.0258-.0899-.0204-.0973-.0211-.0978-.0156-.1077-.0102-.1071-.0102h-.1121-.1169-.117l-.1219.0102-.1261.0163-.1305.0251-.1311.0408-.1299.0571-.1311.0727-.1318.0917-.1255.1142-.1225.1338-.1163.1651-.1115.191-.1034.2269-.0978.2575-.0887.2902-.0738.3295-.0296.1848-.0178.1808-.0099.1807.0056.176.0129.1746.0326.1651.0425.155.0511.1549.0701.1393.0837.1332.0992.1189.112.1087.1262.0931.144.0768.1594.0672.1773.0462.0609.015.0708.0156.0843.0109.093.0109.1022.0101h.1083.1157l.1176-.0101.1213-.0164.1212-.0251.117-.0367.1169-.0408.1164-.057.1077-.0666.0978-.0822.0936-.0931-.2093 1.3773-.0289.0251-.0277.0313-.0376.0367-.0412.0292-.0517.0414-.0659.0367-.0751.036-.0837.0306-.1071.0367-.1218.0258-.1398.0211-.1643.0204-.1816.0102-.2111.0054-.237-.0054-.2628-.0157-.2149-.0258-.2148-.0516-.2142-.0768-.2154-.104-.2056-.123-.1964-.1556-.1865-.18-.173-.2059-.1551-.2324-.1298-.2575-.1121-.2888-.0837-.3153-.056-.3451-.0197-.3663.0098-.4022.0505-.4288.0382-.2106.0412-.2066.0474-.2011.0474-.1909.0499-.1808.0609-.18.0616-.1706.0652-.1597.0708-.1596.0696-.1502.0794-.1441.0837-.1338.0843-.1298.0936-.123.0929-.1135.0985-.1087.1071-.1033.1077-.0978.1127-.0877.1169-.0829.1256-.0774.1262-.0659.1311-.0625.1354-.0571.1453-.0517.1434-.0407.1502-.0367.1594-.0299.1582-.0272.1686-.0197.1681-.0095.1779-.0068.1502.0068.144.0095.1403.0156.1398.0204.1311.0204.1262.0313.1212.0258.1121.0306.1077.0305.0935.0313.0893.0312.0739.0306.0658.0258.056.0211.0419.0204.0283.0109z" stroke="#fff" stroke-width=".216"/><path clip-rule="evenodd" d="m45.8122 18.9205h-1.4557l.1059-.5869v-.053l-.0845.106-.0899.0948-.0886.0843-.0942.0753-.0948.0683-.0948.0572-.0942.0481-.1004.0481-.0996.0369-.0997.0265-.1004.0258-.1052.0153-.1038.0168-.1004.0104-.1045.0056h-.1052l-.2735-.0216-.2519-.0579-.2312-.0899-.2111-.1213-.189-.154-.1682-.1792-.1474-.1966-.126-.2216-.1039-.2391-.0844-.2475-.0581-.2593-.0423-.2705-.0152-.2697.0048-.2747.0257-.2697.0477-.2698.0789-.313.0949-.2962.1107-.2698.1308-.2537.1364-.2384.1578-.212.162-.1896.1744-.1749.1842-.1541.1938-.1317.2-.1164.2001-.09.2097-.0745.2097-.0467.2098-.0321.2159-.0105.153.0042.1468.0167.137.0265.126.0377.1204.0425.106.0467.1045.0586.0948.0585.0838.062.0782.0698.0685.069.0637.0683.0519.069.0478.069.0422.0634.0311.0635.3683-2.0794h1.4287z" fill="#fff" fill-rule="evenodd"/><path d="m45.8122 18.9205h-1.4557l.1059-.5869v-.053l-.0845.106-.0899.0948-.0886.0843-.0942.0753-.0948.0683-.0948.0572-.0942.0481-.1004.0481-.0996.0369-.0997.0265-.1004.0258-.1052.0153-.1038.0168-.1004.0104-.1045.0056h-.1052l-.2735-.0216-.2519-.0579-.2312-.0899-.2111-.1213-.189-.154-.1682-.1792-.1474-.1966-.126-.2216-.1039-.2391-.0844-.2475-.0581-.2593-.0423-.2705-.0152-.2697.0048-.2747.0257-.2697.0477-.2698.0789-.313.0949-.2962.1107-.2698.1308-.2537.1364-.2384.1578-.212.162-.1896.1744-.1749.1842-.1541.1938-.1317.2-.1164.2001-.09.2097-.0745.2097-.0467.2098-.0321.2159-.0105.153.0042.1468.0167.137.0265.126.0377.1204.0425.106.0467.1045.0586.0948.0585.0838.062.0782.0698.0685.069.0637.0683.0519.069.0478.069.0422.0634.0311.0635.3683-2.0794h1.4287z" stroke="#fff" stroke-width=".216"/><path clip-rule="evenodd" d="m43.6881 17 .1362-.0101.1272-.0309.1176-.0356.1124-.0558.1021-.0611.0971-.0773.0931-.0861.0829-.0927.0726-.1021.0687-.1123.063-.1169.054-.1217.0488-.1283.0392-.1324.0334-.1378.0251-.1377.0237-.1425.0148-.1479v-.1384l-.0039-.1425-.0154-.1324-.0192-.1277-.0341-.1229-.0392-.117-.0488-.1015-.0585-.0974-.0629-.082-.0739-.0712-.0829-.0612-.0874-.041-.0931-.0248-.1015-.0108-.133.0108-.1215.0201-.1124.041-.1118.0504-.0976.0665-.0977.082-.0829.0867-.0829.0968-.0726.1116-.0687.1182-.0642.1217-.0534.133-.0482.1371-.0385.1392-.0392.1465-.0289.1485-.0257.2251.0109.2446.0334.2494.0643.2399.097.2097.1266.168.1606.1122z" fill="#fbb231" fill-rule="evenodd"/><path clip-rule="evenodd" d="m13.4752 16.9148-.1973 1.008h-1.2379l.0343-.186.0259-.1681.0181-.1268.0207-.0682-.0686.0723-.0789.073-.0932.0682-.1036.0628-.1177.064-.123.0545-.1281.0544-.1326.0455-.143.0407-.1411.0323-.143.0275-.1469.0179-.1424.009-.1423.0042-.1378-.0132-.1333-.0179-.17152-.0413-.15724-.0455-.13719-.0592-.12294-.0682-.10742-.0718-.09835-.0825-.07895-.0868-.06924-.0897-.05823-.0957-.04983-.1005-.03882-.0993-.02977-.0999-.01941-.1041-.01488-.1053-.00971-.0999v-.0999l.01424-.1771.02976-.1675.04983-.1591.06341-.1544.0783-.1453.088-.1316.10353-.1269.11842-.1136.12295-.1047.13718-.0957.143-.0862.14628-.073.1572-.0622.1631-.0508.1663-.0407.1721-.0275h.0097l.0246-.0048.0349-.0042.0531-.0042.0595-.009.0686-.0048.0731-.0089.0842-.009.0834-.009.0841-.0089.0887-.0054.0776-.009.079-.0042.0731-.0054.0692-.0036h.0538.1138l.1178.0036.1074.0054h.1081l.088.0042.0692.0048.0486.0042h.0148l.0104-.0317.0291-.0814.024-.0957.0103-.0862-.02-.0993-.0434-.0921-.0595-.0808-.079-.0687-.0925-.0581-.1035-.0413-.1178-.0275-.1275-.0089-.1372-.0042-.1482-.0048h-.152l-.1566.0048-.1624.0089-.1579.0132-.1566.0138-.1521.0185-.1482.018-.1423.0227-.1275.0221-.1171.0228-.1081.0281-.08927.0269-.06794.0317-.055.0269.34941-1.0941.1081-.0407.1074-.0365.1184-.0311.1178-.0234.119-.0227.1269-.0179.1274-.0186.1327-.009.1372-.0089.143-.0048.1469-.0048h.1527.1572.1618l.1721.0048.1721.0048.1372.0089.1482.0228.1514.0323.1573.0407.152.055.1476.0634.1468.0772.1392.0855.121.1005.1093.1089.0984.122.0725.1364.0498.146.0291.1538v.1722l-.0291.1819z" fill="#fff" fill-rule="evenodd"/><path d="m13.4752 16.9148-.1973 1.008h-1.2379l.0343-.186.0259-.1681.0181-.1268.0207-.0682-.0686.0723-.0789.073-.0932.0682-.1036.0628-.1177.064-.123.0545-.1281.0544-.1326.0455-.143.0407-.1411.0323-.143.0275-.1469.0179-.1424.009-.1423.0042-.1378-.0132-.1333-.0179-.17152-.0413-.15724-.0455-.13719-.0592-.12294-.0682-.10742-.0718-.09835-.0825-.07895-.0868-.06924-.0897-.05823-.0957-.04983-.1005-.03882-.0993-.02977-.0999-.01941-.1041-.01488-.1053-.00971-.0999v-.0999l.01424-.1771.02976-.1675.04983-.1591.06341-.1544.0783-.1453.088-.1316.10353-.1269.11842-.1136.12295-.1047.13718-.0957.143-.0862.14628-.073.1572-.0622.1631-.0508.1663-.0407.1721-.0275h.0097l.0246-.0048.0349-.0042.0531-.0042.0595-.009.0686-.0048.0731-.0089.0842-.009.0834-.009.0841-.0089.0887-.0054.0776-.009.079-.0042.0731-.0054.0692-.0036h.0538.1138l.1178.0036.1074.0054h.1081l.088.0042.0692.0048.0486.0042h.0148l.0104-.0317.0291-.0814.024-.0957.0103-.0862-.02-.0993-.0434-.0921-.0595-.0808-.079-.0687-.0925-.0581-.1035-.0413-.1178-.0275-.1275-.0089-.1372-.0042-.1482-.0048h-.152l-.1566.0048-.1624.0089-.1579.0132-.1566.0138-.1521.0185-.1482.018-.1423.0227-.1275.0221-.1171.0228-.1081.0281-.08927.0269-.06794.0317-.055.0269.34941-1.0941.1081-.0407.1074-.0365.1184-.0311.1178-.0234.119-.0227.1269-.0179.1274-.0186.1327-.009.1372-.0089.143-.0048.1469-.0048h.1527.1572.1618l.1721.0048.1721.0048.1372.0089.1482.0228.1514.0323.1573.0407.152.055.1476.0634.1468.0772.1392.0855.121.1005.1093.1089.0984.122.0725.1364.0498.146.0291.1538v.1722l-.0291.1819z" stroke="#fff" stroke-width=".216"/><path clip-rule="evenodd" d="m12 16.0647-.0059-.018-.0227-.0174-.0331-.0114-.055-.0066-.0616-.0071-.072-.0042h-.0844-.0836l-.0881.0042-.0947.0071-.0895.0066-.0896.0076-.0837.0076-.0778.0103-.0667.0109-.0617.0104-.0382.0071-.0447.0113-.0617.0142-.0616.0174-.072.0217-.0726.0255-.0778.0246-.0727.0288-.0778.0359-.0726.0359-.0676.0429-.0601.0435-.0566.0458-.0381.051-.033.0566-.0177.0576-.0051.1218.0272.0968.0565.0718.0719.0538.0837.0359.0954.0212.0895.0109.0888.0033.1666-.0033.1505-.0109.1453-.0146.1285-.0212.11-.0251.1065-.0321.0946-.0321.0837-.0396.0727-.0359.0653-.043.0565-.0392.0448-.0429.0381-.0435.0353-.0425.0271-.0396.0154-.0397.0455-.1034.0389-.119.0331-.1142z" fill="#ec1c2e" fill-rule="evenodd"/><path clip-rule="evenodd" d="m2.38841 18h-1.38841l1.15959-6h2.41541l.23084 3.5599 1.67039-3.5599h2.52377l-1.18583 6h-1.38908l.87827-4.4828h-.05519l-2.08026 4.4828h-1.56742l-.01077-.1872-.03567-.4985-.04576-.7074-.05182-.8146-.05115-.817-.04577-.717-.03567-.5214-.01076-.2197h-.01414-.03096-.03095z" fill="#fff" fill-rule="evenodd"/><path d="m2.38841 18h-1.38841l1.15959-6h2.41541l.23084 3.5599 1.67039-3.5599h2.52377l-1.18583 6h-1.38908l.87827-4.4828h-.05519l-2.08026 4.4828h-1.56742l-.01077-.1872-.03567-.4985-.04576-.7074-.05182-.8146-.05115-.817-.04577-.717-.03567-.5214-.01076-.2197h-.01414-.03096-.03095z" stroke="#fff" stroke-width=".216"/><g clip-rule="evenodd" fill-rule="evenodd"><path d="m38.4594 16.9148-.2022 1.008h-1.2354l.0097-.186.0052-.1633v-.1227l.0091-.0538-.0629.0676-.0746.0682-.0881.0634-.0985.064-.1024.0586-.1187.0545-.1238.0544-.1225.0455-.1328.0359-.1381.0365-.1374.0233-.1374.0179-.1433.009-.1374.0042-.1329-.0132-.1335-.0179-.1769-.0413-.1569-.0455-.138-.0592-.129-.0682-.1076-.0718-.0934-.0825-.0784-.0868-.0687-.0897-.059-.0957-.0447-.1005-.0389-.0993-.0246-.0999-.0208-.1041-.0136-.1053-.011-.0999v-.0999l.011-.1771.0292-.1675.0441-.1591.0641-.1544.0733-.1453.094-.1316.103-.1269.1134-.1136.1284-.1047.1322-.0957.1426-.0862.153-.073.1523-.0622.162-.0508.1627-.0407.1673-.0275h.0103l.0234-.0048.035-.0042.0492-.0042.0642-.009.0687-.0048.0739-.0089.0784-.009.0843-.009.0888-.0089.0836-.0054.083-.009.079-.0042.0688-.0054.0687-.0036h.0538.1186l.1186.0036.1128.0054h.1082l.094.0042.0784.0048.0435.0042h.0207l.0097-.0317.0149-.0814.0143-.0957.0091-.0862-.0188-.0993-.0389-.0921-.0642-.0808-.0745-.0687-.0882-.0581-.103-.0413-.1083-.0275-.1186-.0089-.1381-.0042-.1471-.0048h-.153l-.1575.0048-.1614.0089-.1581.0132-.1575.0138-.1524.0185-.1477.018-.142.0227-.1283.0221-.118.0228-.1089.0281-.0875.0269-.07.0317-.0538.0269.3448-1.0941.1076-.0407.1141-.0365.1128-.0311.1173-.0234.1238-.0227.1232-.0179.127-.0186.1335-.009.1374-.0089.1426-.0048.1426-.0048h.153.1523.1582l.1666.0048.1672.0048.1381.0089.1477.0228.1524.0323.1575.0407.1529.055.1517.0634.1478.0772.1374.0855.1238.1005.1128.1089.0979.122.0745.1364.0538.146.035.1538v.1722l-.0246.1819z" fill="#fff"/><path d="m38 17.9662.046-.0275v.0613l.045-.0263.311-.9651-.091-.0086z" fill="#fff"/><path d="m37.027 18 .0235.054h-.047l.0235.053h.973v-.107z" fill="#fff"/><path d="m37.022 18.121-.009.206v.272l-.013.312h.092l.014-.312.015-.272-.007-.206v-.062l-.063-.055z" fill="#fff"/><path d="m35 18.9521.1436.0276.1395.0203.1429-.0055.1504-.0148.1483-.0276.1436-.036.1449-.0543.1429-.0572.1287-.07.1334-.083.1246-.0839.107-.0977.1084-.0995.0914-.0968.0833-.1124.0671-.106-.0515-.0553-.067.1051-.0718.0986-.0928.0977-.0975.0977-.1084.0838-.1226.0848-.1239.0839-.1287.0691-.1334.0563-.1436.0571-.1449.0341-.1375.0267-.1504.0157-.1429.0055-.1395-.0212-.1328-.0267z" fill="#fff"/><path d="m34 17 .0038.1452.0081.1451.0129.1591.0162.1512.0205.1452.0329.1521.0367.1512.0535.1391.0566.1382.0664.1251.0815.1252.0944.106.1064.1061.1192.0852.1344.066.1479.06.0086-.0791-.1479-.06-.1268-.066-.1112-.0852-.1068-.093-.0858-.1043-.0734-.1139-.0659-.1251-.0572-.1252-.0448-.1382-.0366-.1391-.0335-.1373-.02-.146-.0162-.1521-.0124-.1452-.0086-.1451.0043-.1452z" fill="#fff"/><path d="m35 15-.1945.0309-.1894.0473-.1842.057-.1783.0734-.1732.083-.1659.1043-.1519.1098-.1439.1248-.1336.1297-.1181.1461-.1109.1565-.0836.1722-.0712.1763-.0507.1873-.0337.1976-.0169.2038h.0778l.0059-.2038.0337-.1866.0499-.177.0727-.177.0829-.1619.0999-.1462.1181-.1454.1219-.1297.1445-.1153.1512-.1098.1549-.0926.1747-.0844.1658-.072.1843-.057.1783-.0473.1835-.0316z" fill="#fff"/><path d="m35.9463 15.3745-.0678.016-.0678.009-.078.006-.0824.014-.0819.009-.0876.015-.0837.015-.0761.016-.0742.015-.0671.007-.0633.016-.048.007-.0396.007-.0186.007h-.0102v.092h.0102l.0288-.008.0294-.006.048-.008.0633-.016.0671-.008.0742-.015.0761-.015.0837-.016.0876-.014.0819-.007.0824-.016.078-.007.0678-.009h.0678.0537v-.106z" fill="#fff"/><path d="m36 15.0001v.106h.164.1631l.1559.016h.1505.129l.1085.008.0609.008h.0278l.0403-.038-.0815-.016.0412-.039h-.0278l-.0609-.007-.1085-.007-.129-.015h-.1505-.1559l-.1631-.016z" fill="#fff"/><path d="m37.5805 14.2495h-.091-.008l-.007.143-.024.152-.023.137-.014.053.091.016.015-.055.022-.137.022-.166.023-.143z" fill="#fff"/><path d="m36.0025 14.0815v.092.007l.175.007.159.046.152.068.129.091.106.107.091.128.062.137.03.16h.091l-.031-.174-.06-.168-.107-.144-.12-.122-.145-.105-.168-.07-.174-.044-.19-.022z" fill="#fff"/><path d="m35.5848 14.238-.1493.016-.1529.014-.1499.023-.1487.024-.1449.029-.1444.03-.1357.039-.121.038-.1118.038-.1032.044-.0879.047-.07.052-.0553.054.0461.045-.0559-.014.0461.045.0467-.039.0608-.053.0798-.045.102-.045.113-.037.1198-.039.1351-.038.1358-.03.1449-.031.1487-.024.1499-.021.1529-.016h.1493.1455.1389l.1308.008v-.091l-.1308-.007-.1389-.016z" fill="#fff"/><path d="m34.562 13-.031.0207-.531.9713.091.008.531-.9719-.03.0208z" fill="#fff"/><path d="m36.5505 13.268h-.1392-.1398l-.1303.016-.1308.007-.125.017-.122.012-.1214.031-.1119.031-.1126.038-.1083.039-.1072.052-.1031.061-.0989.068.0178.092.0989-.069.103-.06.0989-.054.1084-.038.1131-.038.1108-.03.1125-.031.122-.014.125-.016.1308-.007h.1303.1398.1392.1439l.1528.007h.1528v-.091l-.1528-.015-.1528-.008z" fill="#fff"/><path d="m38.9712 15 .0288-.2425v-.2239l-.0401-.2067-.0636-.1944-.0916-.1826-.1166-.1648-.137-.1477-.1431-.1298-.1665-.1127-.1726-.1057-.184-.0832-.1779-.0707-.1892-.0529-.1794-.0412-.1772-.0288-.1612-.0124v.0707l.1612.0117.1666.0295.1779.0412.1771.0529.1794.0707.1719.0832.1726.094.1551.112.1439.1298.1264.136.1143.1524.0802.1733.0636.1819.0409.1943v.2239l-.0288.2308z" fill="#fff"/><path d="m38.0555 16.9896.092.0104.797-2.9888-.092-.0112z" fill="#fff"/><path d="m37 16.0682-.0112-.0212-.0216-.0178-.0404-.0109-.0567-.0103-.062-.0042-.0739-.0038h-.0858l-.0844.0038-.0911.0075-.0903.007-.0903.0076-.0859.007-.0836.0108-.0746.0066-.074.0108-.0567.0071-.0388.0038-.0456.0108-.0567.0108-.0627.0141-.0739.0207-.0672.0221-.0799.0254-.0731.0315-.0747.0325-.0739.039-.0612.0391-.0627.0465-.0515.0499-.0396.0536-.0329.0574-.0171.0607-.006.1213.0269.0965.047.0715.0672.0536.0851.0357.0971.0212.0963.0108.0963.0033.1702-.0033.1575-.0108.1478-.0179.1314-.0249.1239-.0287.1075-.032.1016-.0362.091-.0423.0799-.0396.0665-.046.0634-.0429.0515-.047.0389-.0423.0291-.0433.0224-.0423.0164-.0395.0231-.0998.0292-.1034.0216-.1002z" fill="#fbb231"/><path d="m47 18 .0085-.1715.0272-.1998.0503-.1774.0607-.155.0752-.1257.086-.0887.0927-.0605.0992-.0214.1006.0214.0926.0605.0856.0887.0752.1257.0606.155.0499.1774.0282.1998.0075.1715h-.1072l-.0033-.1345-.0221-.1628-.0352-.1471-.0466-.1268-.0569-.1033-.0677-.074-.0785-.0517-.0827-.0146-.0814.0146-.0785.0517-.0677.074-.0578.1033-.0461.1268-.0352.1471-.0217.1628-.0075.1345z" fill="#fff"/><path d="m47.1015 17.272v.456h.191v-.296h.227.046.038l.037.006.039.009.023.014.022.015.014.031.008.038v.054l-.014.037-.015.023-.031.023-.038.015-.045.015-.055.007-.029.009h.319l.015-.016.023-.046.015-.053.007-.068-.007-.053-.015-.054-.031-.045-.038-.046-.053-.03-.06-.023-.084-.015-.091-.007z" fill="#fff"/><path d="m47.0028 18-.0028.0395.0112.1982.0271.1829.0501.1642.0603.1363.0748.1148.0855.0897.0921.0538.0987.0206.1-.0206.0921-.0538.0851-.0897.0748-.1148.0603-.1363.0496-.1642.028-.1829.0103-.1982-.0028-.0395h-.1066l.0037.0395-.007.1641-.0219.1498-.0351.13-.0463.1139-.0566.096-.0673.0744-.0781.0484-.0822.0135-.0809-.0135-.0781-.0484-.0673-.0744-.0575-.096-.0458-.1139-.0351-.13-.0215-.1498-.0075-.1641v-.0395z" fill="#fff"/><path d="m47.5375 17.269-.038.006h-.189v-.006h-.191v.462h.191v-.379h.189l.227.379h.154l-.229-.379h.053l.053-.016.046-.016.038-.029.016-.022z" fill="#fff"/></g><path d="m47.5816 17.9043.0092.1076.0123-.0011.0117-.0038zm.0781-.0253.0332.1028.0104-.0034.0095-.0053zm.0677-.0383.0532.0941.0103-.0059.0088-.0079zm.0561-.0504.0723.0803.007-.0064.0059-.0075zm.0463-.0593.0852.0664.006-.0077.0045-.0086zm.0356-.0678.0956.0502.0052-.01.0031-.0109zm.0219-.078.104.0293.0029-.0103.0008-.0107zm.0066-.085.1077.0083.0006-.0083-.0006-.0083zm-.0066-.085.1077-.0083-.0008-.0106-.0029-.0102zm-.0219-.0784.104-.0292-.0029-.0101-.0047-.0093zm-.0356-.0706.0965-.0486-.0045-.0089-.0061-.0079zm-.0463-.0607.0859-.0655-.0064-.0084-.008-.0071zm-.0561-.0495.0715-.081-.01-.0088-.0119-.0061zm-.0677-.035.0495-.096-.0079-.0041-.0084-.0027zm-.0781-.0253.0332-.1027-.0117-.0038-.0123-.0011zm-.0818-.007.0092-.1076-.0093-.0008-.0092.0008zm-.0814.007-.0092-.1076-.0124.0011-.0118.0038zm-.0776.0253-.0334-.1027-.0083.0027-.0079.004zm-.0678.035-.0496-.0959-.0114.0059-.0098.0084zm-.057.0495-.0708-.0815-.0084.0072-.0067.0088zm-.0463.0607-.0859-.0654-.0062.0081-.0046.0093zm-.0351.0706-.0967-.0481-.0046.0094-.0028.0101zm-.0215.0784-.1041-.0285-.0027.0097-.0008.0099zm-.007.085-.1076-.0088-.0007.0088.0007.0089zm.007.085-.1076.0089.0008.0101.0027.0097zm.0215.078-.1041.0287.003.011.0052.01zm.0351.0678-.0959.0496.0046.0089.0062.0079zm.0463.0593-.0852.0664.0062.0079.0074.0066zm.057.0504-.0715.0809.0085.0076.0099.0056zm.0678.0383-.0531.0941.0094.0053.0103.0033zm.0776.0253-.0334.1027.0118.0038.0124.0011zm.1132-.4293-.014-.1077-.0108.0026zm.0252-.0033.0139.1071.0103-.0013.0099-.0033zm.021-.007.0342.1026.0046-.0018zm.0183-.007.0387.1008.0146-.0055.0123-.0095zm.014-.0107.0657.0857.0155-.0119.0104-.0165zm.007-.0112.0916.0573.0047-.0076.0034-.0082zm.007-.0168.0997.0415.0083-.0199v-.0216zm0-.0253h.108v-.0112l-.0023-.011zm-.0037-.0177.1057-.0223-.0028-.0129-.0057-.0119zm-.007-.0145.0972-.0471-.0134-.0276-.0259-.0164zm-.0103-.0065-.0617.0887.0037.0024zm-.0108-.0075.0617-.0887-.0194-.0134-.0232-.0042zm-.0182-.0033-.0201.1062.001.0001zm-.0173-.0032.0201-.1062-.01-.0018h-.0101zm-.1454 0v-.108h-.108v.108zm0 .1415h-.108v.108h.108zm-.0888.213h-.108v.108h.108zm0-.4293v-.108h-.108v.108zm.1949 0 .0082-.108h-.0082zm.043.0033.0193-.1068-.0111-.0009zm.0388.007.0387-.1009-.0095-.0036-.01-.0018zm.0281.0107.0524-.0944-.0067-.0037-.0071-.0027zm.0252.0141.0833-.0689-.013-.0157-.0178-.0099zm.0178.0214.091-.0594-.0078-.0094zm.014.0215.1038-.0299-.0045-.0156-.0088-.0135zm.007.0243.1069-.0158-.0011-.0072-.002-.0069zm.0038.0252.1072.0127.0017-.0143-.0021-.0142zm-.0038.0318.104.0294.0023-.0082.001-.0086zm-.007.0248.0974.0466.004-.0083.0025-.0089zm-.0103.0214.0837.0684.0082-.0101.0056-.0116zm-.0144.0178.0668.0848.0093-.0073.0075-.0092zm-.0178.014.0334.1027.0184-.006.0151-.0119zm-.0215.007.0317.1033.0017-.0006zm-.0243.0075v.108h.0162l.0155-.0048zm-.0253 0v-.108h-.1908l.0982.1636zm.1066.1775v.108h.1909l-.0983-.1636zm-.0715 0-.0927.0554.0314.0526h.0613zm-.1061-.1775.0927-.0554-.0315-.0526h-.0612zm-.0884 0v-.108h-.108v.108zm-.4006-.121-.104-.0294-.0025.009-.001.0092zm.0271-.0957-.0931-.0548-.0071.012-.0037.0133zm.05-.085-.0838-.0681-.0052.0063-.0041.007zm.0603-.0743-.0674-.0844-.0091.0073-.0073.009zm.0748-.0598-.0485-.0965-.0101.0051-.0088.007zm.0856-.043-.0323-.103-.0084.0026-.0078.0039zm.0925-.0289-.0112-.1074-.0107.0011-.0103.0032zm.0987-.0103.0111-.1074-.0112-.0012-.0111.0012zm.0995.0103.0324-.1031-.0104-.0032-.0109-.0012zm.0921.0289.0485-.0965-.0078-.0039-.0083-.0026zm.0856.043.0674-.0844-.0088-.007-.0101-.0051zm.0748.0598.0838-.0681-.0073-.009-.0091-.0073zm.0603.0743.0933-.0544-.0042-.0072-.0053-.0065zm.0496.085.1036-.0304-.0037-.0126-.0066-.0114zm.028.0957.1075-.0107-.001-.01-.0028-.0097zm.0103.1032.1075.0108.001-.0107-.001-.0108zm-.0103.1028.1036.0305.0029-.0097.001-.0101zm-.028.0953.0934.0541.0065-.0112.0037-.0124zm-.0496.0854.0823.07.0063-.0074.0048-.0084zm-.0603.071.0674.0844.0082-.0065.0067-.0079zm-.0748.0598.0517.0948.0083-.0045.0074-.0059zm-.0856.0467.0315.1034.0106-.0033.0097-.0053zm-.0921.0281.0116.1073.0101-.0011.0098-.0029zm-.0995.0107-.0117.1074.0116.0012.0117-.0012zm-.0987-.0107-.0313.1033.0096.0029.01.0011zm-.0925-.0281-.0518.0948.0098.0054.0107.0032zm-.0856-.0467-.0674.0844.0074.0059.0083.0045zm-.0748-.0598-.0823.07.0067.0079.0082.0065zm-.0603-.071-.0932.0546.0048.0082.0061.0072zm-.05-.0854-.1039.0295.0037.0132.007.0118zm-.0271-.0953-.1075.0112.001.0093.0026.0091zm.4982.4159.0818-.007-.0184-.2153-.0818.0071zm.1058-.0119.0781-.0252-.0664-.2055-.0781.0252zm.098-.0339.0678-.0383-.1063-.1881-.0678.0383zm.0869-.0521.0561-.0504-.1445-.1606-.0561.0504zm.069-.0643.0463-.0593-.1703-.1329-.0463.0593zm.0568-.0756.0355-.0677-.1913-.1003-.0355.0677zm.0438-.0886.022-.078-.2079-.0585-.022.078zm.0257-.099.0066-.085-.2154-.0166-.0066.085zm.0066-.1016-.0066-.085-.2154.0166.0066.085zm-.0103-.1058-.0219-.0785-.208.0583.0219.0784zm-.0295-.0979-.0355-.0706-.1929.0972.0355.0705zm-.0461-.0874-.0463-.0608-.1717.131.0462.0607zm-.0607-.0763-.0561-.0495-.1429.162.0561.0495zm-.078-.0644-.0678-.0351-.0991.1919.0678.035zm-.0841-.0419-.0781-.0252-.0664.2055.0781.0252zm-.1021-.0301-.0818-.007-.0184.2152.0818.0071zm-.1003-.007-.0813.007.0185.2153.0813-.0071zm-.1055.0119-.0776.0253.0668.2054.0776-.0252zm-.0938.032-.0678.0351.0992.1918.0678-.035zm-.089.0494-.057.0496.1416.1631.057-.0495zm-.0721.0656-.0463.0608.1718.1309.0463-.0607zm-.0571.0782-.0351.0705.1935.0961.035-.0705zm-.0425.09-.0215.0785.2083.0571.0215-.0785zm-.025.0981-.007.0851.2153.0177.007-.085zm-.007.1028.007.085.2153-.0177-.007-.085zm.0105.1048.0215.078.2083-.0574-.0215-.078zm.0297.099.0351.0677.1918-.0993-.035-.0677zm.0459.0845.0462.0593.1703-.1329-.0462-.0593zm.0598.0738.0571.0504.1431-.1618-.0571-.0504zm.0755.0636.0678.0383.1062-.1881-.0677-.0383zm.0875.0469.0776.0253.0668-.2055-.0776-.0252zm.1018.0302.0813.007.0185-.2152-.0813-.0071zm.1153-.4243.0318-.0075-.0495-.2102-.0317.0075zm.0209-.0055.0253-.0033-.0278-.2142-.0252.0033zm.0455-.0079.0211-.007-.0683-.2049-.021.007zm.0257-.0087.0182-.007-.0775-.2016-.0182.007zm.0451-.022.0141-.0108-.1314-.1715-.014.0108zm.04-.0392.007-.0112-.1831-.1146-.0071.0112zm.0151-.027.007-.0168-.1994-.0831-.007.0168zm.0153-.0583v-.0253h-.216v.0253zm-.0023-.0475-.0037-.0178-.2114.0446.0037.0177zm-.0122-.0426-.007-.0145-.1944.0942.007.0145zm-.0463-.0585-.0103-.0066-.1159.1823.0103.0066zm-.0066-.0041-.0107-.0075-.1233.1774.0107.0075zm-.0533-.0251-.0182-.0033-.0382.2126.0183.0033zm-.0172-.0031-.0173-.0033-.0402.2123.0173.0033zm-.0374-.0051h-.0182v.216h.0182zm-.0182 0h-.0211v.216h.0211zm-.0211 0h-.1061v.216h.1061zm-.2141.108v.1415h.216v-.1415zm.108.2495h.0884v-.216h-.0884zm0-.003h-.0888v.216h.0888zm.0192.108v-.4293h-.216v.4293zm-.108-.3213h.1949v-.216h-.1949zm.1867-.0003.0431.0033.0163-.2154-.043-.0033zm.0321.0019.0388.007.0383-.2126-.0388-.007zm.0193.0016.0281.0107.0772-.2017-.028-.0108zm.0143.0043.0252.014.1049-.1889-.0253-.014zm-.0056-.0116.0178.0215.1664-.1377-.0177-.0215zm.0106.0117.014.0215.1809-.1181-.0141-.0215zm.0007-.0076.007.0243.2075-.0599-.007-.0243zm.0039.0102.0038.0252.2136-.0317-.0037-.0252zm.0033-.0033-.0037.0318.2145.0252.0037-.0317zm-.0004.015-.007.0247.2078.0589.0071-.0248zm-.0005.0075-.0103.0215.1949.0933.0102-.0215zm.0035-.0002-.0145.0178.1673.1366.0145-.0177zm.0023.0013-.0178.014.1338.1696.0177-.014zm.0156-.0039-.0215.007.0669.2054.0215-.007zm-.0198.0065-.0243.0074.0635.2065.0243-.0075zm.0075.0027h-.0253v.216h.0253zm-.1179.1636.1066.1775.1852-.1112-.1066-.1775zm.1992.0139h-.0715v.216h.0715zm.0212.0525-.1061-.1774-.1854.1108.1061.1775zm-.1988-.23h-.0884v.216h.0884zm-.1964.108v.1775h.216v-.1775zm-.196-.0066.0108-.1032-.2149-.0224-.0107.1032zm.0073-.085.0271-.0957-.2078-.0589-.0272.0958zm.0162-.0704.0501-.085-.1862-.1095-.05.085zm.0408-.0717.0603-.0742-.1676-.1362-.0603.0743zm.0439-.0579.0748-.0598-.1348-.1688-.0748.0598zm.0559-.0477.0855-.043-.0969-.193-.0856.043zm.0693-.0364.0926-.029-.0645-.2061-.0926.029zm.0715-.0246.0987-.0103-.0224-.2148-.0987.0103zm.0764-.0103.0996.0103.0221-.2149-.0995-.0102zm.0783.0059.0921.029.0647-.2061-.0921-.029zm.076.0224.0855.043.097-.193-.0856-.043zm.0666.0309.0748.0598.1348-.1688-.0748-.0598zm.0584.0435.0603.0742.1676-.1361-.0603-.0743zm.0508.0605.0496.0851.1866-.1088-.0496-.085zm.0392.061.0281.0958.2073-.0608-.0281-.0957zm.0242.0761.0103.1032.215-.0214-.0103-.1032zm.0103.0818-.0102.1027.2149.0215.0103-.1027zm-.0064.083-.028.0953.2072.061.028-.0953zm-.0179.0716-.0495.0855.1868.1083.0496-.0855zm-.0384.0697-.0603.071.1646.1399.0603-.071zm-.0454.0566-.0748.0598.1348.1687.0748-.0598zm-.0592.0493-.0855.0467.1035.1896.0855-.0467zm-.0652.0382-.0921.028.0629.2067.0921-.028zm-.0722.024-.0996.0107.0232.2148.0995-.0108zm-.0763.0107-.0987-.0107-.0234.2147.0987.0108zm-.0791-.0067-.0926-.028-.0625.2067.0925.028zm-.0721-.0195-.0855-.0467-.1035.1896.0855.0467zm-.0699-.0362-.0748-.0598-.1348.1687.0748.0598zm-.0599-.0454-.0603-.071-.1646.1399.0603.071zm-.0494-.0556-.05-.0855-.1864.1091.05.0855zm-.0394-.0605-.0271-.0953-.2077.0592.0271.0952zm-.0235-.077-.0108-.1027-.2148.0225.0107.1027z" fill="#fff"/><path clip-rule="evenodd" d="m38 18h1.5046l.5383-2.6294.021-.101.0324-.1023.0316-.1017.0429-.1016.0534-.1011.0632-.0974.0696-.0925.0857-.0877.0963-.0785.1061-.0743.123-.07.1384-.0548.1546-.0457.1708-.0371.1862-.028.208-.0098h.0759.0422.0155l.2403-1.1871-.1497.0091-.144.0146-.1336.0226-.1279.0322-.1173.0366-.1118.0474-.1068.05-.1019.0554-.0948.0651-.0914.0645-.085.0743-.0851.0737-.0808.0785-.0794.0877-.0801.0828-.0738.0931.1595-.8365h-1.4996z" fill="#fff" fill-rule="evenodd"/><path d="m38 18h1.5046l.5383-2.6294.021-.101.0324-.1023.0316-.1017.0429-.1016.0534-.1011.0632-.0974.0696-.0925.0857-.0877.0963-.0785.1061-.0743.123-.07.1384-.0548.1546-.0457.1708-.0371.1862-.028.208-.0098h.0759.0422.0155l.2403-1.1871-.1497.0091-.144.0146-.1336.0226-.1279.0322-.1173.0366-.1118.0474-.1068.05-.1019.0554-.0948.0651-.0914.0645-.085.0743-.0851.0737-.0808.0785-.0794.0877-.0801.0828-.0738.0931.1595-.8365h-1.4996z" stroke="#fff" stroke-width=".216"/><path clip-rule="evenodd" d="m25 18h1.417.0251l.4827-2.6294.0206-.101.0245-.0974.0251-.0968.0351-.0932.0398-.0919.0509-.0883.0596-.0828.0709-.0785.0801-.07.0907-.0688.1113-.0554.1198-.0505.141-.0427.1563-.0359.1708-.0237.1954-.0134h.0159l.0198.0042.0252.0049h.0251l.0245.0043.0212.0049.0139.0048h.0053l.0053-.0189.0153-.0554.0198-.0827.0252-.1023.0351-.12.0351-.1296.0457-.1291.0443-.1297.0411-.0876.0503-.0883.0503-.0871.0497-.0785.045-.0688.0351-.056.0252-.0323.0099-.0134h-.004l-.0205-.0054-.0245-.0043-.0358-.0049h-.035l-.0404-.0042-.0351-.0049h-.0358l-.1556.0091-.1404.0146-.1311.0226-.1198.028-.1159.0365-.1059.0469-.0954.0456-.0907.0548-.0848.0609-.0807.0694-.0755.0694-.0755.0779-.0755.0792-.0702.0883-.0748.0913-.0761.0931.1807-.8365h-1.4421z" fill="#fff" fill-rule="evenodd"/><path d="m25 18h1.417.0251l.4827-2.6294.0206-.101.0245-.0974.0251-.0968.0351-.0932.0398-.0919.0509-.0883.0596-.0828.0709-.0785.0801-.07.0907-.0688.1113-.0554.1198-.0505.141-.0427.1563-.0359.1708-.0237.1954-.0134h.0159l.0198.0042.0252.0049h.0251l.0245.0043.0212.0049.0139.0048h.0053l.0053-.0189.0153-.0554.0198-.0827.0252-.1023.0351-.12.0351-.1296.0457-.1291.0443-.1297.0411-.0876.0503-.0883.0503-.0871.0497-.0785.045-.0688.0351-.056.0252-.0323.0099-.0134h-.004l-.0205-.0054-.0245-.0043-.0358-.0049h-.035l-.0404-.0042-.0351-.0049h-.0358l-.1556.0091-.1404.0146-.1311.0226-.1198.028-.1159.0365-.1059.0469-.0954.0456-.0907.0548-.0848.0609-.0807.0694-.0755.0694-.0755.0779-.0755.0792-.0702.0883-.0748.0913-.0761.0931.1807-.8365h-1.4421z" stroke="#fff" stroke-width=".216"/><path clip-rule="evenodd" d="m47.3985 23.1015-.0942.052-.0879.092-.0764.122-.0616.152-.0512.174-.0272.197v.031h.1042l.0219-.159.0363-.144.0469-.13.0583-.106.0692-.084.0798-.053.0832-.015.0836.015.0798.053.0688.084.0578.106.0468.13.0368.144.022.159h.1046v-.031l-.0282-.197-.0506-.174-.0617-.152-.0764-.122-.0874-.092-.0942-.052-.1017-.023z" fill="#fbb231" fill-rule="evenodd"/><path clip-rule="evenodd" d="m47.519 23.3675h-.418v.265h.191v-.152h.227.046.039l.037.007.038.008.024.015.021.014.015.031.008.038v.039h.152l-.007-.069-.016-.053-.03-.046-.038-.039-.053-.03-.06-.014-.084-.014z" fill="#fbb231" fill-rule="evenodd"/><path clip-rule="evenodd" d="m47.402 23.4165-.023.167h.226l.016-.161v-.006z" fill="#fbb231" fill-rule="evenodd"/><path clip-rule="evenodd" d="m47.7465 23.4165v.016l-.014.036-.016.024-.03.022-.038.015-.045.017-.055.007-.068.014h-.188v-.151h-.191v.167h.722l.03-.03.023-.039.015-.046.007-.052z" fill="#fbb231" fill-rule="evenodd"/><path clip-rule="evenodd" d="m48.3795 23.4165v.006l.014.161h.227l-.022-.167z" fill="#fbb231" fill-rule="evenodd"/><path clip-rule="evenodd" d="m47 24v.021l.0108.2013.0275.1876.0496.1665.0603.1464.0753.118.0855.0823.0921.0568.0987.0201.1-.0201.0916-.0568.0856-.0823.0748-.118.0603-.1464.0496-.1665.028-.1876.0103-.2013v-.021h-.1057v.021l-.007.1675-.0219.1528-.0356.1308-.0458.1171-.0566.0988-.0673.076-.0781.0494-.0822.0137-.0809-.0137-.0781-.0494-.0678-.076-.057-.0988-.0458-.1171-.0351-.1308-.0215-.1528-.0075-.1675v-.021z" fill="#fbb231" fill-rule="evenodd"/><path clip-rule="evenodd" d="m47.12 23.2795v.441h.191v-.381h.189l.227.381h.153l-.228-.381h.053l.052-.014.046-.015.039-.031z" fill="#fbb231" fill-rule="evenodd"/><path clip-rule="evenodd" d="m23.5933 14.9779h-1.8889l.0013-.0036-.0027-.0006.0129-.0639.0212-.096.0306-.0916.0361-.0917.047-.0821.047-.0784.0559-.0736.0626-.0687.0675-.064.0661-.0543.079-.0506.0763-.0417.0885-.0361.0879-.0272.0879-.0187.0926-.0139.0988-.0048.0933.0097.0872.0138.0831.0187.0824.0266.0777.0368.0777.041.0681.0464.0613.0543.0518.064.0517.0687.0361.0784.0361.0875.0198.0905.0109.1013.0061.1098zm1.4019-.4216-.0415-.2733-.0729-.2431-.1029-.2105-.1301-.1834-.1546-.1562-.1703-.1279-.186-.1098-.2023-.082-.2064-.0694-.2119-.0458-.2125-.032-.2118-.0181-.2017-.0048-.4196.0187-.3712.0549-.3372.082-.2991.1152-.2588.137-.2282.1556-.2017.1737-.1648.184-.1451.1918-.1186.2015-.0926.1972-.0783.1961-.0566.193-.0415.178-.0307.1695-.0204.1465-.0259.3752.0157.339.0565.3071.0872.2702.1253.2425.1499.2105.1751.1882.2016.155.2173.1334.2337.114.2425.088.2527.0676.2588.0555.2589.0326.2582.0229.2527.0036h.171l.1614-.0036h.1383l.1349-.0054.1192-.0091.1083-.0084.1029-.0097.0933-.0139.0879-.0144.0824-.0169.0838-.0236.0776-.0223.077-.0283.0831-.0266.0818-.0374.0838-.0362.2064-1.1268-.1499.0785-.1451.0723-.1492.0555-.1451.0501-.1396.041-.1444.0272-.1404.0235-.1396.0181-.1397.0096-.1335.0043h-.1403l-.1342-.0043-.1342-.0096-.1349-.0133-.1294-.0145-.1342-.0174-.1035-.0187-.1036-.032-.1028-.041-.094-.0507-.0927-.0549-.0831-.0676-.077-.0693-.0729-.0784-.0613-.0773-.0565-.0868-.0422-.0833-.0361-.0868-.0205-.0875-.0102-.0868.0041-.0773.0129-.0597h3.3543l.0252-.2793.0783-.3848.0361-.3487z" fill="#fff" fill-rule="evenodd"/></svg>