<svg fill="none" height="17" viewBox="0 0 53 17" width="53" xmlns="http://www.w3.org/2000/svg" xmlns:xlink="http://www.w3.org/1999/xlink"><mask id="a" height="17" maskUnits="userSpaceOnUse" width="20" x="0" y="0"><path clip-rule="evenodd" d="m0 .720703h19.4326v16.003797h-19.4326z" fill="#fff" fill-rule="evenodd"/></mask><mask id="b" height="17" maskUnits="userSpaceOnUse" width="14" x="25" y="0"><path clip-rule="evenodd" d="m25.334.435059h12.7751v16.564841h-12.7751z" fill="#fff" fill-rule="evenodd"/></mask><path clip-rule="evenodd" d="m20.6919.999756-2.6919 16.000044h4.3067l2.6933-16.000044z" fill="#0066b2" fill-rule="evenodd"/><g mask="url(#a)"><path clip-rule="evenodd" d="m14.8335.720703-4.0733 11.007197-.4826-2.36984v.00068l-1.438-7.19712s-.17295-1.440917-2.02655-1.440917h-6.7344915l-.07880264.27132s2.06002414.416837 4.47082414 1.829197l3.7114 13.90328h4.45202l6.7986-16.003797z" fill="#0066b2" fill-rule="evenodd"/></g><path clip-rule="evenodd" d="m43.7415 11.0637 2.2448-5.99007 1.2636 5.99007zm4.7016 5.6604h3.9234l-3.4206-16.003153h-3.4345c-1.5865 0-1.9736 1.192043-1.9736 1.192043l-6.3725 14.81111h4.4541l.8905-2.3766h5.4318z" fill="#0066b2" fill-rule="evenodd"/><g mask="url(#b)"><path clip-rule="evenodd" d="m37.4996 4.56897.6095-3.43672s-1.8822-.69768-3.8425-.69768c-2.1214 0-7.1564.9044-7.1564 5.29788 0 4.13508 5.9109 4.18676 5.9109 6.35735 0 2.1705-5.3014 1.7829-7.0518.4134l-.6353 3.5925s1.908.9043 4.8237.9043c2.915 0 7.3154-1.4728 7.3154-5.4787 0-4.16093-5.9632-4.54921-5.9632-6.35733 0-1.81016 4.1612-1.5776 5.9897-.595z" fill="#0066b2" fill-rule="evenodd"/></g><path clip-rule="evenodd" d="m10.2774 9.3585-1.43801-7.19644s-.17295-1.441601-2.02655-1.441601h-6.7344906l-.07810526.27132s3.23718586.654161 6.34186586 3.104201c2.9687 2.34328 3.93529 5.26252 3.93529 5.26252z" fill="#f9a533" fill-rule="evenodd"/></svg>