<svg fill="none" height="35" viewBox="0 0 26 35" width="26" xmlns="http://www.w3.org/2000/svg"><path clip-rule="evenodd" d="m0 2c0-1.10457.895431-2 2-2h16.1716c.5304 0 1.0391.210714 1.4142.585786l5.8284 5.828424c.3751.37508.5858.88378.5858 1.41422v25.17157c0 1.1046-.8954 2-2 2h-22c-1.10457 0-2-.8954-2-2z" fill="#d8d8d8" fill-rule="evenodd"/><g fill="#878787"><rect height="2" rx="1" width="18" x="4" y="11"/><rect height="2" rx="1" width="18" x="4" y="16"/><rect height="2" rx="1" width="18" x="4" y="21"/><rect height="2" rx="1" width="12" x="7" y="26"/><path clip-rule="evenodd" d="m19 0 7 7h-5c-1.1046 0-2-.89543-2-2z" fill-rule="evenodd"/></g></svg>