<svg fill="none" height="16" viewBox="0 0 55 16" width="55" xmlns="http://www.w3.org/2000/svg" xmlns:xlink="http://www.w3.org/1999/xlink"><linearGradient id="a" gradientUnits="userSpaceOnUse" x1="38.9711" x2="55" y1="7.00631" y2="7.00631"><stop offset="0" stop-color="#00b4e6"/><stop offset="1" stop-color="#088ccb"/></linearGradient><g clip-rule="evenodd" fill-rule="evenodd"><path d="m49.4056 0h-10.4056c.5594 3.61667 3.9161 7 7.6084 7h8.2797c.1119-.35.1119-.81667.1119-1.16667 0-3.26666-2.4615-5.83333-5.5944-5.83333z" fill="url(#a)"/><g fill="#4db45f"><path d="m40 7v9h5.1136v-4.8h4.5455c2.5 0 4.6591-1.8 5.3409-4.2z"/><path d="m22 0v16h4.5714s1.1429 0 1.7143-1.1429c3.0857-6.17139 4-7.99996 4-7.99996h.5714v9.14286h5.1429v-16h-4.5714s-1.1429.114286-1.7143 1.14286c-2.6286 5.25714-4 8-4 8h-.5714v-9.14286z"/><path d="m0 16v-16h5.02941s1.45294 0 2.2353 2.28571c2.01176 6.05715 2.23529 6.85715 2.23529 6.85715s.44706-1.48572 2.2353-6.85715c.7823-2.28571 2.2353-2.28571 2.2353-2.28571h5.0294v16h-5.0294v-8.57143h-.5588l-2.7942 8.57143h-2.23525l-2.79411-8.57143h-.55883v8.57143z"/></g></g></svg>