<svg xmlns="http://www.w3.org/2000/svg" xmlns:xlink="http://www.w3.org/1999/xlink" width="158" height="44"><defs><path id="a" d="M0 .656h42.755v42.611H0z"/></defs><g fill="none" fill-rule="evenodd"><mask id="b" fill="#fff"><use xlink:href="#a"/></mask><path fill="#BB0E00" d="M21.378 37.088c-8.304 0-15.034-6.774-15.034-15.127 0-8.353 6.73-15.125 15.034-15.125 8.302 0 15.033 6.772 15.033 15.125S29.68 37.088 21.378 37.088zM38.42 21.897l-.013.071v-.007c0-.096-.006-.19-.007-.284l1.677-.563 2.678.143-2.572-4.584-2.812-.637.007.045c-.03-.083-.065-.165-.096-.249l1.379-1.103 2.565-.786-3.974-3.422-2.86.368.043.073c-.065-.077-.132-.152-.199-.23l.925-1.515 2.142-1.622-4.898-1.847-2.562 1.33.064.053c-.088-.05-.174-.102-.261-.15l.35-1.739 1.463-2.26-5.231-.052-1.955 2.132.08.03c-.1-.018-.198-.04-.299-.054l-.26-1.755L24.4.656l-4.934 1.751-1.112 2.677h.086c-.1.018-.2.034-.3.054l-.84-1.56-.325-2.677-4.039 3.343-.136 2.899.079-.03c-.088.05-.177.1-.263.152L11.298 6.09l-1.216-2.404-2.659 4.531.857 2.77.067-.056-.196.236-1.64-.652-1.96-1.84-.958 5.174 1.747 2.308.025-.044c-.03.085-.057.171-.086.256l-1.763-.046-2.467-1.056.859 5.192 2.425 1.566.014-.071v.007c0 .095.006.19.007.285l-1.677.562L0 22.665l2.57 4.585 2.813.637-.007-.046c.03.083.065.167.096.249l-1.379 1.102-2.565.788 3.975 3.423 2.86-.369-.043-.074c.064.079.131.153.198.23l-.926 1.515-2.14 1.622 4.898 1.849 2.561-1.331-.064-.054c.088.05.174.103.263.152l-.353 1.737-1.462 2.262 5.231.052 1.954-2.134-.08-.028c.101.018.199.037.3.054l.26 1.753-.606 2.629 4.933-1.753 1.113-2.677h-.086c.1-.016.2-.034.3-.054l.84 1.56.325 2.679 4.039-3.345.136-2.897-.079.028c.088-.05.177-.099.263-.152l1.32 1.177 1.214 2.403 2.66-4.532-.859-2.77-.066.057c.065-.079.132-.158.195-.237l1.642.652 1.96 1.841.958-5.174-1.748-2.308-.026.045c.032-.085.058-.172.087-.258l1.762.048 2.468 1.056-.859-5.194-2.425-1.566z" mask="url(#b)"/><path fill="#BB0E00" d="M11.482 21c.126-2.185 1.054-4.166 2.518-5.694L11.536 13C9.446 15.122 8.132 17.915 8 21h3.482zm3.114-7c1.718-1.464 3.946-2.39 6.404-2.517V8c-3.47.132-6.612 1.446-9 3.538L14.596 14zM30 15.306c1.464 1.528 2.39 3.51 2.517 5.694H36c-.13-3.085-1.445-5.878-3.537-8L30 15.306zM28.404 30c-1.718 1.464-3.946 2.39-6.404 2.517V36c3.47-.132 6.612-1.446 9-3.538L28.404 30zM21 32.517A10.697 10.697 0 0114.594 30L12 32.462c2.387 2.092 5.53 3.406 9 3.538v-3.483zm.5-3.924a6.094 6.094 0 110-12.187 6.094 6.094 0 01.001 12.187M21.5 14a8.5 8.5 0 100 17 8.5 8.5 0 000-17"/><path fill="#BB0E00" d="M26 22a4 4 0 11-8 0 4 4 0 018 0"/><path fill="#2E2014" d="M62.52 17.214c1.515-1.659 3.023-3.318 4.536-4.978L70 9h-5.46l-.109.325-8.2 8.321V9H52v23.963h4.244v-8.826l2.484 2.55c1.85 1.896 3.7 3.795 5.557 5.69l.098.108c.195.217.44.478.787.49.642.019 1.276.025 1.912.025l2.16-.006.563-.929-10.882-10.921 1.454-1.59c.727-.795 1.435-1.564 2.144-2.34m89.395 11.601h-5.357c.48-.765.468-1.638.461-2.448-.012-1.913-.012-3.826-.012-5.773l.006-1.883h4.902v10.104zm4.096.02V15H142.95v1.458c0 3.32 0 6.648-.006 9.974 0 .328-.006.713-.069 1.092-.13.828-.706 1.329-1.54 1.336H140V35h4.165v-2.428h9.702v2.42H158v-6.157h-1.988zm-36.047-12.417V15h-4.377v11.497c0 2.327 0 2.327-2.26 2.876-1.355.32-2.557.058-3.3-.714-.58-.593-.868-1.43-.836-2.43.067-2.308.053-4.653.04-6.928-.006-.967-.012-1.942-.012-2.915v-1.34h-3.622l-.362.097-.224.484-.006 3.478c-.008 2.692-.014 5.379.02 8.072.014 1.62.599 3.039 1.683 4.098 1.78 1.726 4.048 2.17 6.756 1.346.676-.21 1.302-.483 1.958-.778.054-.019.113-.046.171-.071 0 .235 0 .47-.006.704-.014 1.53-.683 2.432-2.09 2.838-.597.164-1.256.255-1.808.203a83.553 83.553 0 01-3.537-.334c-.544-.058-1.09-.117-1.635-.17l-.474-.051-.565 3.41.538.053c.75.066 1.493.15 2.223.235 1.452.177 2.833.34 4.238.34.218 0 .441-.006.658-.012 4.53-.183 6.96-2.753 6.861-7.242-.091-3.582-.071-7.23-.052-10.76a534.7 534.7 0 00.02-4.568M95.929 29.665c-.735.052-1.483.04-2.238.014l-.535-.02c-.245 0-.49-.046-.762-.09h-.012v-1.662c0-2.756-.008-5.466.012-8.17a.426.426 0 01.106-.177c1.092-.605 2.132-.898 3.177-.898l.244.006c1.735.072 2.832 1.167 2.873 2.86.039 1.817.025 3.623.006 5.316-.02 1.608-1.091 2.665-2.871 2.82M96.796 15c-.47 0-.948.046-1.423.144-.98.189-1.94.507-2.865.82-.22.078-.44.15-.664.222-.006-.046-.02-.092-.032-.136-.027-.08-.277-.743-.807-.776-.425-.02-.84-.026-1.258-.026L88 15.254V39h4.368v-6.182c.384.04.761.084 1.138.124 1.152.13 2.244.255 3.363.255h.217c3.256-.046 5.717-2.424 5.85-5.655.093-2.275.067-4.51.032-6.398-.071-3.564-2.665-6.144-6.172-6.144m36.557 6.865h-6.733V15H122v17.98h4.647v-7.16h6.74V33H138V15h-4.647zM81.67 27.233c-.012.382-.292.922-.655 1.292-.606.605-1.331.885-2.295.885a7.64 7.64 0 01-1.485-.172c-.65-.133-1.764-.554-1.968-1.878-.102-.732-.077-1.483-.051-2.28.012-.354.025-.712.025-1.067l-.057-.491h-.006v-.4a40.537 40.537 0 01.012-1.974c.032-1.19.683-2.074 1.696-2.297.937-.198 1.95-.255 2.81-.108 1.26.196 1.955.973 2.013 2.246.09 1.896.077 3.939-.039 6.244m.102-11.686a10.028 10.028 0 00-6.033-.159c-2.958.827-4.543 2.8-4.717 5.875a27.647 27.647 0 00-.012 1.89c0 .286.008.572.008.86l.03.45c0 .167-.006.338-.006.51-.014.7-.02 1.4.013 2.095.122 2.354 1.363 4.117 3.588 5.104a9.343 9.343 0 003.822.828c1.097 0 2.225-.198 3.352-.587 2.466-.858 3.913-2.672 4.07-5.117.15-2.17.15-4.391.008-6.593-.165-2.495-1.586-4.277-4.123-5.156"/></g></svg>