<svg width="432" height="58" xmlns="http://www.w3.org/2000/svg" xmlns:xlink="http://www.w3.org/1999/xlink"><defs><path id="a" d="M.001 0h58.556v58H.001z"/><path id="c" d="M0 58h230V0H0z"/></defs><g fill="none" fill-rule="evenodd"><mask id="b" fill="#fff"><use xlink:href="#a"/></mask><g mask="url(#b)" fill="#BB0E00"><path d="M29.279 49.59c-11.371 0-20.59-9.218-20.59-20.59 0-11.371 9.219-20.59 20.59-20.59 11.37 0 20.589 9.219 20.589 20.59 0 11.372-9.218 20.59-20.59 20.59h.001zm23.343-20.677l-.018.097V29c0-.13-.008-.257-.01-.387l2.297-.766 3.666.194-3.521-6.24-3.853-.866.012.062c-.042-.114-.09-.226-.133-.34l1.89-1.501 3.512-1.071-5.444-4.658-3.916.502.058.1c-.09-.106-.181-.21-.271-.313l1.267-2.063 2.933-2.207-6.708-2.516-3.508 1.81.087.075c-.12-.07-.24-.14-.36-.206l.484-2.366 2.002-3.078-7.164-.07-2.678 2.902.11.04c-.138-.024-.273-.051-.411-.073l-.354-2.387L33.419 0l-6.756 2.385-1.524 3.642h.117c-.137.024-.274.047-.41.074l-1.151-2.123L23.25.334l-5.533 4.55-.185 3.945.107-.04c-.12.07-.241.136-.36.207l-1.806-1.6-1.664-3.272-3.643 6.169 1.175 3.77.092-.077c-.09.106-.18.214-.267.322l-2.25-.887-2.682-2.506-1.313 7.043 2.393 3.14.035-.06c-.042.116-.08.235-.12.35l-2.412-.064-3.38-1.436 1.176 7.067 3.323 2.133.017-.098V29c0 .13.008.258.01.387l-2.297.767L0 29.96l3.52 6.239 3.853.867-.012-.062c.042.114.09.226.134.339l-1.89 1.5-3.512 1.072 5.443 4.659 3.917-.502-.058-.1c.089.106.18.208.27.312L10.4 46.347l-2.933 2.208 6.708 2.516 3.508-1.812-.087-.072c.12.069.238.138.359.205l-.484 2.366-2.001 3.078 7.164.069 2.677-2.901-.11-.04c.138.024.273.05.41.073l.356 2.386L25.139 58l6.756-2.384 1.524-3.643h-.117c.137-.024.274-.047.41-.073l1.15 2.123.445 3.644 5.534-4.551.185-3.944-.107.039c.12-.07.24-.136.359-.206l1.806 1.6 1.665 3.272 3.642-6.17-1.175-3.77-.091.078c.09-.107.179-.214.267-.322l2.248.887 2.684 2.506 1.312-7.044-2.392-3.14-.035.06c.042-.116.078-.234.119-.351l2.413.065 3.379 1.437-1.176-7.067-3.322-2.133z"/><path d="M15.608 28.254a13.634 13.634 0 013.475-8.394l-3.4-3.4A18.419 18.419 0 0010.8 28.254h4.808zm4.53-9.449a13.64 13.64 0 018.395-3.476v-4.808a18.418 18.418 0 00-11.794 4.883l3.399 3.4v.001zm19.336 1.055a13.645 13.645 0 013.475 8.394h4.808a18.415 18.415 0 00-4.883-11.794l-3.4 3.4zm-1.056 19.336a13.642 13.642 0 01-8.394 3.475v4.808a18.42 18.42 0 0011.794-4.883l-3.4-3.4zm-9.886 3.474a13.63 13.63 0 01-8.395-3.474l-3.399 3.4a18.426 18.426 0 0011.794 4.883V42.67zm.747-5.064a8.605 8.605 0 110-17.21 8.605 8.605 0 010 17.21zm0-20.613c-6.631 0-12.006 5.375-12.006 12.006s5.375 12.007 12.006 12.007c6.63 0 12.006-5.376 12.006-12.007 0-6.63-5.375-12.006-12.006-12.006z"/><path d="M35.15 29a5.872 5.872 0 11-11.74.309A5.872 5.872 0 0135.15 29zm213.809.219V25.56h-3.975v3.659h-1.411V20.71h1.411v3.61h3.975v-3.61h1.41v8.509h-1.41zm7.303-3.112s-.534-.012-.814-.012c-1.337 0-2.078.316-2.078 1.228 0 .571.4.935.985.935.886 0 1.565-.584 1.921-1.19l-.014-.96v-.001zm.291 3.172c-.084-.339-.132-.766-.169-1.033-.778.766-1.337 1.143-2.263 1.143-1.444 0-2.063-.972-2.063-1.97 0-1.483.923-2.346 3.243-2.346.353 0 .657.013.984.013-.046-.633-.229-1.496-1.579-1.496-1.153 0-1.495.426-1.945.804l-.121-1.582s.851-.4 2.151-.4c2.31 0 2.783.972 2.783 3.088v1.178c0 1.775.257 2.42.257 2.42l-1.278.181zm7.023-5.591h-1.885s-.085 2.03-.378 2.978c-.182.607-.29 1.058-.57 1.46h2.833v-4.438zm1.238 7.463l-.122-1.883h-4.982l-.109 1.883h-.95l-.339-3.026h1.13c.243-.4.91-1.653.998-4.425.01-.414.034-.924.034-1.167h4.451v5.592h1.117l-.278 3.026h-.95zm6.401-11.17a.842.842 0 01.84.837.832.832 0 01-1.157.766.818.818 0 01-.508-.766.829.829 0 01.825-.837zm-2.964 5.25h3.244c0-1.008-.436-1.835-1.542-1.835-1.058 0-1.58.656-1.702 1.835zm.45-5.25c.461 0 .84.376.84.837a.832.832 0 01-.84.827.822.822 0 01-.828-.827.832.832 0 01.828-.837zm3.792 8.946c-.656.292-1.546.413-2.31.413-2.249 0-3.305-1.082-3.305-3.44 0-2.043.984-3.549 3.207-3.549 2.19 0 2.736 1.616 2.736 2.905 0 .462-.06 1.021-.074 1.106h-4.496c.133 1.24.765 1.811 2.006 1.811 1.58 0 2.236-.559 2.236-.559v1.313zm5.137-2.686h-.233c-.17 0-.414.279-.728.716l-1.69 2.262h-1.713l2.784-3.49-2.602-3.196h1.664l1.58 2.128c.341.474.511.692.694.692h.243v-2.82h1.36v2.82h.244c.182 0 .352-.218.693-.692l1.58-2.128h1.667l-2.53 3.197 2.71 3.49h-1.712l-1.692-2.263c-.314-.438-.557-.716-.727-.716h-.233v2.979h-1.36v-2.98l.001.001zm11.324 2.978v-2.796h-3.183v2.796h-1.363v-6.686h1.363v2.698h3.183v-2.698h1.363v6.686h-1.363z"/></g><mask id="d" fill="#fff"><use xlink:href="#c"/></mask><path d="M84.467 22.245c2.14-2.253 4.272-4.505 6.413-6.758l4.16-4.393h-7.716l-.155.44L75.577 22.83V11.094h-5.981v32.53h5.999v-11.98l3.513 3.46c2.615 2.573 5.23 5.154 7.854 7.726l.138.147c.276.293.622.647 1.113.664.906.026 1.804.035 2.702.035l3.055-.01.794-1.26-15.38-14.828 2.054-2.157c1.027-1.08 2.028-2.123 3.029-3.176zm122.061 16.442h-7.414c.664-1.027.647-2.202.639-3.289-.017-2.572-.017-5.144-.017-7.759l.008-2.529h6.784v13.577zm5.67.025v-18.59h-18.081v1.96c0 4.461 0 8.932-.01 13.402 0 .441-.008.96-.095 1.468-.18 1.113-.974 1.786-2.13 1.795h-1.848v8.251h5.765v-3.263h13.43v3.255h5.723v-8.278h-2.754zm-49.222-16.7v-1.873h-5.75V35.32c0 3.073 0 3.073-2.968 3.797-1.778.423-3.357.078-4.333-.94-.76-.786-1.138-1.89-1.095-3.21.085-3.048.068-6.146.05-9.15a617.622 617.622 0 01-.016-3.85V20.2h-4.756l-.475.128-.293.64-.01 4.591c-.007 3.556-.016 7.104.027 10.66.017 2.14.785 4.012 2.21 5.411 2.339 2.278 5.316 2.865 8.873 1.777.889-.274 1.708-.637 2.57-1.026.07-.026.148-.06.226-.095 0 .31 0 .621-.01.932-.017 2.02-.896 3.21-2.744 3.746-.785.215-1.648.337-2.373.267-1.545-.104-3.081-.267-4.644-.44-.716-.077-1.432-.154-2.15-.223l-.62-.07-.742 4.506.708.069c.984.085 1.959.197 2.917.31 1.908.232 3.72.448 5.567.448.284 0 .578-.008.863-.017 5.947-.24 9.14-3.633 9.01-9.563-.12-4.73-.095-9.545-.068-14.205.017-2.012.026-4.023.026-6.034zM131.093 39.17c-.959.07-1.935.052-2.918.017l-.699-.025c-.32 0-.639-.06-.992-.12h-.018V36.84c0-3.65-.009-7.242.018-10.823a.569.569 0 01.137-.234c1.424-.802 2.78-1.19 4.143-1.19l.319.008c2.262.094 3.695 1.545 3.746 3.79.052 2.407.035 4.798.009 7.042-.025 2.132-1.424 3.53-3.745 3.737zm1.13-19.429c-.612 0-1.234.061-1.856.191-1.277.25-2.529.673-3.737 1.087-.285.104-.569.198-.863.294-.009-.06-.027-.122-.043-.182-.035-.104-.362-.984-1.053-1.027a34.75 34.75 0 00-1.64-.035l-2.279.01v31.46h5.696v-8.192c.501.052.994.113 1.485.164 1.502.173 2.927.337 4.386.337h.284c4.246-.06 7.457-3.21 7.63-7.49.121-3.014.086-5.974.043-8.477-.095-4.722-3.478-8.14-8.053-8.14zm49.223 9.348h-8.363V20.13h-5.74v23.468h5.774V34.25h8.372v9.374h5.731V20.13h-5.774v8.959zm-70.266 7.225c-.017.518-.396 1.25-.89 1.75-.82.822-1.802 1.202-3.106 1.202-.578 0-1.233-.078-2.011-.234-.88-.181-2.39-.751-2.667-2.546-.138-.992-.103-2.011-.07-3.09.018-.483.036-.966.036-1.45l-.078-.664h-.008v-.544c-.01-.898-.018-1.787.017-2.675.043-1.615.924-2.814 2.296-3.117 1.269-.267 2.64-.344 3.806-.146 1.709.267 2.65 1.32 2.728 3.046.12 2.573.102 5.343-.052 8.468h-.001zm.139-15.847c-2.65-.906-5.43-.984-8.174-.216-4.005 1.122-6.154 3.798-6.387 7.967-.043.846-.034 1.7-.017 2.563 0 .388.008.777.008 1.165l.043.613c0 .225-.008.458-.008.69-.017.95-.026 1.899.017 2.84.164 3.194 1.847 5.584 4.859 6.922a12.66 12.66 0 005.179 1.122c1.485 0 3.013-.267 4.54-.794 3.34-1.165 5.3-3.625 5.515-6.94.199-2.942.199-5.955.009-8.941-.224-3.383-2.15-5.8-5.584-6.991zm117.944 29.286v-34.1 34.1zm-.605 0h1.207v-34.1h-1.207v34.1z" fill="#2F2116" mask="url(#d)"/><path d="M243.171 20.128h1.329v4.612c0 .481-.012.969-.036 1.462-.024.49-.043.822-.055.996h.055l4.533-7.07h1.693V29h-1.335v-4.576c0-.7.039-1.55.115-2.549h-.048L244.87 29h-1.699v-8.872zm11.081 2.16v2.695h3.161v-2.695h1.427V29h-1.427v-2.895h-3.161V29h-1.426v-6.712zm11.638 0v1.117h-2.184V29h-1.432v-5.595h-2.185v-1.117zm4.187 6.833c-1.044 0-1.861-.303-2.452-.91-.586-.61-.88-1.45-.88-2.518 0-1.097.273-1.959.82-2.586.546-.627 1.296-.94 2.251-.94.886 0 1.586.269 2.1.807s.77 1.278.77 2.221v.77h-4.472c.02.652.196 1.154.528 1.506.332.348.799.522 1.402.522.396 0 .764-.037 1.104-.11a5.973 5.973 0 001.105-.376v1.16a4.38 4.38 0 01-1.056.351 6.476 6.476 0 01-1.22.103zm-.261-5.874c-.453 0-.817.144-1.092.43-.271.288-.433.707-.486 1.257h3.047c-.008-.554-.142-.973-.401-1.256-.259-.287-.615-.431-1.068-.431zm7.858 5.874c-.85 0-1.509-.305-1.978-.916h-.085c.056.567.085.91.085 1.032v2.749h-1.426v-9.698h1.153c.032.125.099.425.2.898h.073c.445-.68 1.112-1.02 2.002-1.02.838 0 1.489.304 1.954.911.47.607.704 1.458.704 2.555 0 1.096-.238 1.952-.716 2.567-.473.615-1.128.922-1.966.922zm-.346-5.79c-.566 0-.981.167-1.244.499-.259.331-.388.861-.388 1.59v.212c0 .817.129 1.41.388 1.778.259.364.682.546 1.268.546.494 0 .874-.202 1.141-.607.267-.404.401-.98.401-1.73 0-.752-.134-1.32-.401-1.704-.263-.389-.651-.583-1.165-.583zm6.074-1.043v2.695h3.162v-2.695h1.426V29h-1.426v-2.895h-3.162V29h-1.426v-6.712zm9.527 6.833c-1.044 0-1.861-.303-2.452-.91-.587-.61-.88-1.45-.88-2.518 0-1.097.273-1.959.819-2.586.547-.627 1.297-.94 2.252-.94.886 0 1.586.269 2.1.807.513.538.77 1.278.77 2.221v.77h-4.472c.02.652.196 1.154.528 1.506.331.348.799.522 1.402.522.396 0 .764-.037 1.104-.11a5.973 5.973 0 001.105-.376v1.16a4.38 4.38 0 01-1.056.351 6.476 6.476 0 01-1.22.103zm-.261-5.874c-.453 0-.817.144-1.092.43-.272.288-.433.707-.486 1.257h3.047c-.009-.554-.142-.973-.401-1.256-.259-.287-.615-.431-1.068-.431zm9.496-.959v1.117h-2.184V29h-1.432v-5.595h-2.185v-1.117zm.673 3.987v-1.213h3.119v1.213zm8.404 1.36l.079-.292c.166-.602.31-1.066.431-1.39l1.505-3.665h1.9V29h-1.317v-5.42l-.109.365c-.183.651-.336 1.13-.462 1.438L311.8 29h-1.081l-1.468-3.641a16.18 16.18 0 01-.558-1.778V29h-1.305v-6.712h1.887l1.457 3.556c.129.328.299.925.509 1.79zM321.357 29l-.285-.934h-.049c-.324.408-.649.687-.977.837-.328.146-.748.218-1.262.218-.66 0-1.175-.178-1.548-.534-.368-.356-.552-.86-.552-1.51 0-.693.257-1.215.771-1.566.514-.352 1.296-.545 2.348-.577l1.159-.036v-.358c0-.43-.101-.749-.303-.96-.198-.214-.508-.32-.928-.32-.344 0-.674.05-.99.15a7.48 7.48 0 00-.91.359l-.461-1.02a4.87 4.87 0 011.195-.43 5.398 5.398 0 011.226-.152c.854 0 1.497.186 1.93.558.437.372.655.957.655 1.754V29h-1.019zm-2.124-.97c.518 0 .932-.145 1.244-.432.316-.291.473-.698.473-1.22v-.582l-.861.036c-.672.024-1.162.138-1.469.34-.303.198-.455.504-.455.916 0 .3.089.532.267.698.178.162.445.243.801.243zm9.436-5.742v1.117h-2.913V29h-1.426v-6.712zM334.124 29l-.286-.934h-.048c-.324.408-.65.687-.977.837-.328.146-.749.218-1.263.218-.659 0-1.175-.178-1.547-.534-.368-.356-.552-.86-.552-1.51 0-.693.257-1.215.77-1.566.514-.352 1.297-.545 2.349-.577l1.159-.036v-.358c0-.43-.101-.749-.303-.96-.199-.214-.508-.32-.929-.32-.344 0-.673.05-.989.15a7.485 7.485 0 00-.91.359l-.462-1.02a4.89 4.89 0 011.196-.43 5.398 5.398 0 011.226-.152c.854 0 1.497.186 1.93.558.437.372.655.957.655 1.754V29h-1.019zM332 28.03c.517 0 .932-.145 1.244-.432.315-.291.473-.698.473-1.22v-.582l-.862.036c-.671.024-1.161.138-1.468.34-.304.198-.456.504-.456.916 0 .3.089.532.268.698.178.162.445.243.801.243zm6.577-3.06c.651 0 1.131-.07 1.438-.212.308-.146.462-.368.462-.668 0-.546-.486-.819-1.457-.819-.647 0-1.309.146-1.984.437l-.462-1.062c.781-.32 1.643-.48 2.586-.48.833 0 1.48.154 1.942.462.461.303.691.74.691 1.31 0 .753-.43 1.247-1.292 1.482v.048c.538.146.922.354 1.153.625.235.271.352.607.352 1.008 0 .614-.271 1.106-.813 1.474-.538.364-1.291.546-2.258.546-1.056 0-1.863-.14-2.421-.418V27.47c.74.348 1.507.522 2.3.522.57 0 1.009-.08 1.317-.237.311-.162.467-.407.467-.734 0-.336-.156-.583-.467-.74-.312-.159-.793-.237-1.445-.237h-.819V24.97h.71zm6.305-2.682v3.441c0 .4-.033.99-.098 1.766l3.369-5.207h1.741V29h-1.371v-3.38c0-.186.01-.488.03-.904.024-.417.045-.72.061-.91L345.258 29h-1.742v-6.712h1.366zm8.434 0v2.695h3.162v-2.695h1.426V29h-1.426v-2.895h-3.162V29h-1.426v-6.712zm-104.428 15V44h-1.432v-5.583h-3.01V44h-1.426v-6.712zm5.412 6.833c-.849 0-1.509-.305-1.978-.916h-.085c.057.566.085.91.085 1.032v2.749h-1.426v-9.698h1.153c.032.126.099.425.2.898h.073c.445-.68 1.112-1.02 2.003-1.02.837 0 1.488.304 1.954.911.469.607.704 1.459.704 2.555s-.239 1.952-.717 2.567c-.473.615-1.128.922-1.966.922zm-.346-5.79c-.566 0-.981.167-1.244.499-.259.331-.388.861-.388 1.59v.212c0 .817.129 1.41.388 1.778.259.364.682.546 1.269.546.493 0 .874-.202 1.141-.607.267-.404.4-.98.4-1.73 0-.752-.133-1.32-.4-1.705-.263-.388-.652-.582-1.166-.582zm10.601 2.301c0 1.096-.281 1.952-.843 2.567-.563.615-1.345.922-2.349.922-.627 0-1.181-.141-1.663-.424a2.806 2.806 0 01-1.11-1.22c-.259-.53-.388-1.145-.388-1.845 0-1.088.279-1.938.837-2.549.558-.61 1.345-.916 2.361-.916.971 0 1.739.313 2.306.94.566.623.849 1.465.849 2.525zm-4.885 0c0 1.55.573 2.324 1.718 2.324 1.132 0 1.699-.775 1.699-2.324 0-1.533-.571-2.3-1.712-2.3-.598 0-1.033.198-1.304.595-.267.396-.401.965-.401 1.705zm10.346 2.003l.079-.292c.166-.603.31-1.066.431-1.39l1.505-3.665h1.9V44h-1.317v-5.42l-.11.365c-.182.651-.335 1.13-.461 1.438L270.575 44h-1.081l-1.468-3.641a16.171 16.171 0 01-.559-1.778V44h-1.304v-6.712h1.887l1.457 3.556c.129.328.299.925.509 1.79zm7.342-2.665h1.36c.938 0 1.632.162 2.081.486.449.324.674.81.674 1.456 0 .692-.235 1.214-.704 1.566-.465.348-1.149.522-2.051.522h-2.786v-6.712h1.426v2.683zm2.701 1.979c0-.336-.125-.57-.376-.704-.247-.134-.603-.2-1.068-.2h-1.257v1.9h1.075c.574 0 .989-.082 1.244-.244.255-.162.382-.412.382-.752zM283.961 44h-1.432v-6.712h1.432V44zm11.518 0h-9.51v-6.712h1.426v5.583h2.616v-5.583h1.426v5.583h2.609v-5.583h1.433zm7.524 0h-1.438v-5.595h-1.851c-.114 1.44-.267 2.565-.462 3.374-.19.81-.441 1.4-.752 1.772a1.486 1.486 0 01-1.202.558 2.02 2.02 0 01-.783-.133v-1.117c.15.057.3.085.449.085.413 0 .737-.463.971-1.39.239-.93.425-2.352.559-4.266h4.509V44zm4.939.121c-1.044 0-1.861-.303-2.452-.91-.587-.61-.88-1.45-.88-2.518 0-1.097.273-1.959.819-2.586.547-.627 1.297-.94 2.252-.94.886 0 1.586.269 2.1.807.513.538.77 1.278.77 2.221v.77h-4.472c.02.652.196 1.154.528 1.506.331.348.799.522 1.402.522.396 0 .764-.037 1.104-.11a5.966 5.966 0 001.105-.376v1.16a4.38 4.38 0 01-1.056.351 6.476 6.476 0 01-1.22.103zm-.261-5.874c-.453 0-.817.144-1.093.43-.271.288-.432.707-.485 1.257h3.046c-.008-.554-.141-.973-.4-1.256-.259-.287-.615-.431-1.068-.431zm5.879-.959v2.695h3.162v-2.695h1.426V44h-1.426v-2.895h-3.162V44h-1.426v-6.712zm8.022 0v2.695h3.162v-2.695h1.426V44h-1.426v-2.895h-3.162V44h-1.426v-6.712zm12.549 3.344c0 1.096-.281 1.952-.843 2.567-.563.615-1.345.922-2.349.922-.627 0-1.181-.141-1.663-.424a2.806 2.806 0 01-1.11-1.22c-.259-.53-.388-1.145-.388-1.845 0-1.088.279-1.938.837-2.549.558-.61 1.345-.916 2.361-.916.971 0 1.739.313 2.306.94.566.623.849 1.465.849 2.525zm-4.885 0c0 1.55.573 2.324 1.718 2.324 1.132 0 1.699-.775 1.699-2.324 0-1.533-.571-2.3-1.712-2.3-.598 0-1.033.198-1.304.595-.267.396-.401.965-.401 1.705zm10.832-3.344v1.117h-2.913V44h-1.426v-6.712zm7.208 3.344c0 1.096-.281 1.952-.843 2.567-.562.615-1.345.922-2.349.922-.627 0-1.181-.141-1.662-.424a2.802 2.802 0 01-1.111-1.22c-.259-.53-.388-1.145-.388-1.845 0-1.088.279-1.938.837-2.549.558-.61 1.345-.916 2.361-.916.971 0 1.739.313 2.306.94.566.623.849 1.465.849 2.525zm-4.885 0c0 1.55.573 2.324 1.718 2.324 1.132 0 1.699-.775 1.699-2.324 0-1.533-.571-2.3-1.712-2.3-.598 0-1.033.198-1.304.595-.267.396-.401.965-.401 1.705zm11.049-3.344v3.441c0 .4-.032.99-.097 1.766l3.368-5.207h1.742V44h-1.371v-3.38c0-.186.01-.488.03-.904.024-.417.044-.72.061-.91L353.827 44h-1.742v-6.712h1.365zm8.435 0v2.695h3.162v-2.695h1.426V44h-1.426v-2.895h-3.162V44h-1.426v-6.712zm9.302 6.833c-1.015 0-1.788-.295-2.318-.886-.526-.594-.789-1.446-.789-2.554 0-1.13.275-1.997.826-2.604.554-.607 1.353-.91 2.397-.91.708 0 1.345.131 1.911.394l-.431 1.147c-.602-.234-1.1-.352-1.493-.352-1.161 0-1.741.77-1.741 2.312 0 .753.143 1.32.431 1.7.291.376.716.564 1.274.564.635 0 1.236-.158 1.802-.473v1.244c-.254.15-.527.257-.819.321a4.854 4.854 0 01-1.05.097zm8.453-6.833v1.117h-2.185V44h-1.432v-5.595h-2.185v-1.117zm4.66 6.833c-.85 0-1.509-.305-1.978-.916h-.085c.056.566.085.91.085 1.032v2.749h-1.427v-9.698h1.153c.033.126.1.425.201.898h.073c.445-.68 1.112-1.02 2.002-1.02.838 0 1.489.304 1.954.911.47.607.704 1.459.704 2.555s-.238 1.952-.716 2.567c-.473.615-1.129.922-1.966.922zm-.346-5.79c-.566 0-.981.167-1.244.499-.259.331-.388.861-.388 1.59v.212c0 .817.129 1.41.388 1.778.259.364.682.546 1.268.546.494 0 .874-.202 1.141-.607.267-.404.401-.98.401-1.73 0-.752-.134-1.32-.401-1.705-.263-.388-.651-.582-1.165-.582zm3.628-1.043h1.554l1.365 3.805a7.19 7.19 0 01.413 1.53h.048c.037-.223.104-.492.201-.808.097-.32.611-1.828 1.541-4.527h1.542l-2.871 7.604c-.522 1.396-1.392 2.094-2.609 2.094-.316 0-.623-.035-.923-.103v-1.13c.215.05.459.074.734.074.688 0 1.172-.399 1.451-1.196l.249-.631-2.695-6.712zm11.499 5.347l.079-.292c.166-.603.31-1.066.431-1.39l1.505-3.665h1.9V44h-1.317v-5.42l-.109.365c-.183.651-.336 1.13-.462 1.438L399.64 44h-1.081l-1.468-3.641a16.18 16.18 0 01-.558-1.778V44h-1.305v-6.712h1.887l1.457 3.556c.129.328.299.925.509 1.79zm8.848 1.486c-1.044 0-1.861-.303-2.452-.91-.587-.61-.88-1.45-.88-2.518 0-1.097.273-1.959.819-2.586.546-.627 1.297-.94 2.252-.94.886 0 1.586.269 2.099.807.514.538.771 1.278.771 2.221v.77h-4.472c.02.652.196 1.154.527 1.506.332.348.8.522 1.402.522a5.26 5.26 0 001.105-.11 5.934 5.934 0 001.104-.376v1.16a4.38 4.38 0 01-1.056.351 6.465 6.465 0 01-1.219.103zm-.261-5.874c-.454 0-.818.144-1.093.43-.271.288-.433.707-.485 1.257h3.046c-.008-.554-.141-.973-.4-1.256-.259-.287-.615-.431-1.068-.431zm5.879-.959v2.695h3.162v-2.695h1.426V44h-1.426v-2.895h-3.162V44h-1.426v-6.712zm11.639 0v1.117h-2.185V44h-1.432v-5.595h-2.185v-1.117zM430.641 44l-.285-.934h-.049c-.324.408-.649.687-.977.837-.328.146-.748.218-1.262.218-.66 0-1.176-.178-1.548-.534-.368-.356-.552-.86-.552-1.51 0-.692.257-1.215.771-1.566.514-.352 1.296-.545 2.348-.577l1.159-.036v-.358c0-.43-.101-.749-.303-.96-.198-.214-.508-.32-.929-.32-.343 0-.673.05-.989.15a7.48 7.48 0 00-.91.359l-.461-1.02a4.87 4.87 0 011.195-.43 5.398 5.398 0 011.226-.152c.854 0 1.497.186 1.93.558.437.372.655.957.655 1.754V44h-1.019zm-2.124-.97c.518 0 .932-.145 1.244-.432.315-.291.473-.698.473-1.22v-.582l-.861.036c-.672.024-1.162.138-1.469.34-.304.198-.455.504-.455.916 0 .3.089.532.267.698.178.162.445.243.801.243z" fill="#BB0E00" fill-rule="nonzero"/></g></svg>