<svg fill="none" height="30" viewBox="0 0 30 30" width="30" xmlns="http://www.w3.org/2000/svg" xmlns:xlink="http://www.w3.org/1999/xlink"><mask id="a" fill="#000" height="8" maskUnits="userSpaceOnUse" width="8" x="17.068" y="21.0145"><path d="m17.068 21.0145h8v8h-8z" fill="#fff"/><path clip-rule="evenodd" d="m21.0263 23.0145c-1.0815 0-1.9583.8922-1.9583 1.9927 0 1.1007.8768 1.9929 1.9583 1.9929 1.0817 0 1.9585-.8922 1.9585-1.9929 0-1.1005-.8768-1.9927-1.9585-1.9927" fill="#000" fill-rule="evenodd"/></mask><mask id="b" fill="#000" height="8" maskUnits="userSpaceOnUse" width="8" x="7.06799" y="21.0145"><path d="m7.06799 21.0145h8v8h-8z" fill="#fff"/><path clip-rule="evenodd" d="m11.0263 23.0145c-1.08155 0-1.95831.8922-1.95831 1.9927 0 1.1007.87676 1.9929 1.95831 1.9929 1.0817 0 1.9585-.8922 1.9585-1.9929 0-1.1005-.8768-1.9927-1.9585-1.9927" fill="#000" fill-rule="evenodd"/></mask><mask id="c" fill="#000" height="20" maskUnits="userSpaceOnUse" width="30" x="0" y="0"><path d="m0 0h30v20h-30z" fill="#fff"/><path clip-rule="evenodd" d="m27.8853 6.18377c-.1199-.18213-.3168-.29077-.5271-.29077h-20.16535l-.59499-3.052c-.09548-.4896-.50408-.841-.97784-.841h-2.62171c-.55135 0-.99831.47154-.99831 1.05322s.44696 1.05322.99831 1.05322h1.80787l2.53963 13.02536c.08928.4577.44745.7836.86475.8337.06339.0221.13071.0345.20052.0345h15.15112c.2681 0 .5079-.1757.6014-.4408l3.796-10.75283c.0734-.20786.0457-.44047-.0743-.6226" fill="#000" fill-rule="evenodd"/></mask><g fill="#bb0e00"><path d="m21.0263 21.0145c-2.2188 0-3.9583 1.8206-3.9583 3.9927h4c0-.0076.0012-.0091.0007-.0079 0 0 0 0-.0001 0 0 .0001 0 .0001-.0001.0002s-.0002.0003-.0005.0005c-.0007.0008-.0045.0044-.0133.0082-.0045.0019-.0097.0036-.0153.0048-.0058.0012-.0104.0015-.0131.0015zm-3.9583 3.9927c0 2.1722 1.7394 3.9929 3.9583 3.9929v-4c.0027 0 .0073.0003.0131.0015.0056.0012.0108.0029.0153.0048.0088.0038.0127.0074.0134.0082l.0005.0005c0 .0001.0001.0001.0001.0002.0005.0012-.0007-.0004-.0007-.0081zm3.9583 3.9929c2.219 0 3.9585-1.8207 3.9585-3.9929h-4c0 .0077-.0012.0093-.0008.0081 0 0 .0001 0 .0001-.0001 0 0 0 0 .0001-.0001s.0002-.0003.0005-.0005c.0007-.0008.0045-.0044.0133-.0082.0045-.0019.0097-.0037.0153-.0048.0058-.0012.0104-.0015.013-.0015zm3.9585-3.9929c0-2.1721-1.7396-3.9927-3.9585-3.9927v4c-.0026 0-.0072-.0003-.0129-.0015s-.0109-.0029-.0154-.0048c-.0088-.0038-.0126-.0074-.0133-.0081-.0002-.0003-.0004-.0005-.0005-.0006 0-.0001-.0001-.0001-.0001-.0001 0-.0001 0-.0001 0-.0001-.0005-.0012.0007.0003.0007.0079z" mask="url(#a)"/><path d="m11.0263 21.0145c-2.21881 0-3.95831 1.8206-3.95831 3.9927h4.00001c0-.0076.0012-.0091.0007-.0079 0 0 0 0-.0001 0 0 .0001 0 .0001-.0001.0002s-.0002.0003-.0005.0005c-.0007.0008-.0045.0044-.0133.0082-.0045.0019-.0097.0036-.0153.0048-.0058.0012-.0104.0015-.0131.0015zm-3.95831 3.9927c0 2.1722 1.73941 3.9929 3.95831 3.9929v-4c.0027 0 .0073.0003.0131.0015.0056.0012.0108.0029.0153.0048.0088.0038.0127.0074.0134.0082l.0005.0005c0 .0001.0001.0001.0001.0002.0005.0012-.0007-.0004-.0007-.0081zm3.95831 3.9929c2.219 0 3.9585-1.8207 3.9585-3.9929h-4c0 .0077-.0012.0093-.0008.0081 0 0 .0001 0 .0001-.0001 0 0 0 0 .0001-.0001s.0002-.0003.0005-.0005c.0007-.0008.0045-.0044.0133-.0082.0045-.0019.0097-.0037.0153-.0048.0058-.0012.0104-.0015.013-.0015zm3.9585-3.9929c0-2.1721-1.7396-3.9927-3.9585-3.9927v4c-.0026 0-.0072-.0003-.0129-.0015s-.0109-.0029-.0154-.0048c-.0088-.0038-.0126-.0074-.0133-.0081-.0002-.0003-.0004-.0005-.0005-.0006 0-.0001-.0001-.0001-.0001-.0001 0-.0001 0-.0001 0-.0001-.0005-.0012.0007.0003.0007.0079z" mask="url(#b)"/><path d="m7.19285 5.893-1.96304.3827.31529 1.6173h1.64775zm-.59499-3.052 1.96304-.3827-.00002-.00013zm-1.79168 1.26544 1.96303-.38274-.31532-1.61726h-1.64771zm2.53963 13.02536-1.96304.3828.00004.0002zm.86475.8337.65685-1.889-.20383-.0709-.21425-.0258zm15.95304-.4063-1.8859-.6658v.0001zm3.796-10.75283 1.886.66578v-.00003zm1.5961-1.72258c-.4733-.7187-1.2848-1.19079-2.1975-1.19079v4c-.4921 0-.9098-.25481-1.1432-.60926zm-2.1975-1.19079h-20.16535v4h20.16535zm-18.2023 1.61731-.595-3.05201-3.92608.76539.59499 3.05201zm-.59502-3.05214c-.26446-1.35606-1.43783-2.45817-2.94086-2.45817v4c-.5555 0-.91168-.39931-.98518-.77618zm-2.94086-2.45817h-2.62171v4h2.62171zm-2.62171 0c-1.75547 0-2.99831 1.46923-2.99831 3.05322h4c0 .42064-.34892.94678-1.00169.94678zm-2.99831 3.05322c0 1.584 1.24284 3.05322 2.99831 3.05322v-4c.65277 0 1.00169.52614 1.00169.94678zm2.99831 3.05322h1.80787v-4h-1.80787zm-.15517-1.61726 2.53963 13.02542 3.92607-.7655-2.53963-13.0254zm2.53967 13.02562c.24914 1.277 1.27783 2.2788 2.58897 2.4364l.47755-3.9714c.47656.0574.78889.4073.85947.7691zm2.1709 2.3398c.25922.0901.54822.1454.85737.1454v-4c.16952 0 .3239.0304.45633.0765zm.85737.1454h15.15112v-4h-15.15112zm15.15112 0c1.17 0 2.13-.7626 2.4874-1.775l-3.7719-1.3315c.1703-.4824.6506-.8935 1.2845-.8935zm2.4874-1.775 3.796-10.75285-3.7719-1.33156-3.796 10.75281zm3.796-10.75288c.2789-.79003.1786-1.67692-.2899-2.38833l-3.3407 2.19995c-.2286-.34714-.2734-.7688-.1413-1.14312z" mask="url(#c)"/></g></svg>